<?xml version="1.0" encoding="utf-8"?>
<svg version="1.1" id="layer" x="0px" y="0px" viewBox="0 0 652 652" style="enable-background:new 0 0 652 652;" xmlns="http://www.w3.org/2000/svg">
  <style type="text/css">
	.st0{fill:#005288;}
	.st1{fill:#FFFFFF;}
</style>
  <path class="st0" d="M 319.308 310.94 C 317.586 307.545 315.672 305.507 312.035 305.507 C 308.399 305.507 305.145 308.677 305.145 313.205 C 305.145 317.505 308.782 319.317 311.652 320.901 L 314.332 322.26 C 319.691 324.976 324.284 328.371 324.284 336.069 C 324.284 344.671 318.351 351.236 311.27 351.236 C 304.571 351.236 299.595 346.256 298.255 338.559 L 302.849 336.974 C 303.422 341.954 306.676 346.029 311.27 346.029 C 315.672 346.029 319.882 341.954 319.882 336.521 C 319.882 330.861 316.054 328.825 312.227 326.788 L 309.738 325.428 C 304.954 322.713 300.743 319.77 300.743 312.752 C 300.743 305.055 306.294 300.301 312.418 300.301 C 317.011 300.301 321.031 303.017 323.136 307.997 L 319.308 310.94 Z M 366.008 305.281 C 362.372 302.112 358.161 300.527 353.567 300.527 C 341.701 300.527 331.94 312.072 331.94 326.108 C 331.94 340.144 341.892 351.462 353.567 351.462 C 357.97 351.462 362.372 349.652 366.008 346.709 L 366.008 339.917 C 362.754 343.766 358.161 346.482 353.377 346.482 C 343.997 346.482 336.534 336.974 336.534 326.108 C 336.534 315.242 343.997 305.734 353.377 305.734 C 358.161 305.734 362.754 308.224 366.008 312.299 L 366.008 305.281 Z M 381.319 321.128 L 381.319 301.206 L 376.726 301.206 L 376.726 350.33 L 381.319 350.33 L 381.319 326.108 L 402.565 326.108 L 402.565 350.33 L 407.157 350.33 L 407.157 301.206 L 402.565 301.206 L 402.565 321.128 L 381.319 321.128 Z M 421.894 325.881 C 421.894 314.789 429.359 305.507 438.929 305.507 C 448.499 305.507 455.962 314.789 455.962 325.881 C 455.962 336.974 448.307 346.256 438.929 346.256 C 429.551 346.256 421.894 336.974 421.894 325.881 M 460.556 325.881 C 460.556 311.847 450.795 300.301 438.929 300.301 C 427.063 300.301 417.302 311.62 417.302 325.881 C 417.302 340.144 427.063 351.236 438.929 351.236 C 450.795 351.236 460.556 340.144 460.556 325.881 M 472.997 325.881 C 472.997 314.789 480.462 305.507 490.03 305.507 C 499.6 305.507 507.065 314.789 507.065 325.881 C 507.065 336.974 499.41 346.256 490.03 346.256 C 480.462 346.256 472.997 336.974 472.997 325.881 M 511.659 325.881 C 511.659 311.847 501.898 300.301 490.03 300.301 C 478.164 300.301 468.403 311.62 468.403 325.881 C 468.403 340.144 478.164 351.236 490.03 351.236 C 501.898 351.236 511.659 340.144 511.659 325.881 M 526.204 301.206 L 521.61 301.206 L 521.61 350.33 L 537.688 350.33 L 537.688 345.35 L 526.204 345.35 L 526.204 301.206 Z M 567.354 325.881 C 567.354 314.789 574.818 305.507 584.388 305.507 C 593.957 305.507 601.422 314.789 601.422 325.881 C 601.422 336.974 593.766 346.256 584.388 346.256 C 575.009 346.256 567.354 336.974 567.354 325.881 M 606.015 325.881 C 606.015 311.847 596.254 300.301 584.388 300.301 C 572.521 300.301 562.76 311.62 562.76 325.881 C 562.76 340.144 572.521 351.236 584.388 351.236 C 596.254 351.236 606.015 340.144 606.015 325.881 M 634.916 306.413 L 634.916 301.432 L 615.968 301.432 L 615.968 350.557 L 620.562 350.557 L 620.562 326.108 L 634.341 326.108 L 634.341 321.128 L 620.562 321.128 L 620.562 306.413 L 634.916 306.413 Z M 661.902 350.557 L 666.687 350.557 L 672.046 317.28 L 672.237 317.28 L 685.635 352.594 L 699.032 317.28 L 699.223 317.28 L 704.583 350.557 L 709.368 350.557 L 700.947 298.489 L 685.827 339.917 L 670.707 298.489 L 661.902 350.557 Z M 717.98 350.557 L 739.607 350.557 L 739.607 345.35 L 722.574 345.35 L 722.574 326.108 L 739.034 326.108 L 739.034 320.901 L 722.574 320.901 L 722.574 306.187 L 739.607 306.187 L 739.607 300.98 L 717.98 300.98 L 717.98 350.557 Z M 754.345 345.35 L 754.345 306.187 L 757.791 306.187 C 762.766 306.187 766.976 306.865 770.613 310.94 C 774.25 314.563 775.973 319.996 775.973 325.655 C 775.973 331.088 774.25 336.296 770.805 340.144 C 766.976 344.444 762.766 345.124 757.599 345.124 L 754.345 345.124 L 754.345 345.35 Z M 749.752 350.557 L 757.408 350.557 C 763.915 350.557 768.891 349.652 773.867 344.444 C 778.461 339.691 780.566 333.352 780.566 326.108 C 780.566 318.863 778.461 312.299 773.675 307.319 C 768.7 302.339 763.724 301.432 757.408 301.432 L 749.752 301.432 L 749.752 350.557 Z M 795.494 301.206 L 790.901 301.206 L 790.901 350.557 L 795.494 350.557 L 795.494 301.206 Z M 839.132 305.281 C 835.496 302.112 831.285 300.527 826.691 300.527 C 814.825 300.527 805.064 312.072 805.064 326.108 C 805.064 340.144 815.017 351.462 826.691 351.462 C 831.094 351.462 835.496 349.652 839.132 346.709 L 839.132 339.917 C 835.878 343.766 831.285 346.482 826.5 346.482 C 817.123 346.482 809.658 336.974 809.658 326.108 C 809.658 315.242 817.123 305.734 826.5 305.734 C 831.285 305.734 835.878 308.224 839.132 312.299 L 839.132 305.281 Z M 854.635 301.206 L 850.042 301.206 L 850.042 350.557 L 854.635 350.557 L 854.635 301.206 Z M 866.692 350.557 L 871.286 350.557 L 871.286 312.525 L 903.824 352.594 L 903.824 301.206 L 899.23 301.206 L 899.23 339.464 L 866.692 299.169 L 866.692 350.557 Z M 916.073 350.557 L 937.7 350.557 L 937.7 345.35 L 920.666 345.35 L 920.666 326.108 L 937.126 326.108 L 937.126 320.901 L 920.666 320.901 L 920.666 306.187 L 937.7 306.187 L 937.7 300.98 L 916.073 300.98 L 916.073 350.557 Z M 337.681 497.703 C 350.122 497.703 356.438 494.534 360.266 491.139 C 361.032 490.459 362.181 481.857 362.372 474.386 C 362.372 473.707 360.457 473.707 360.457 474.16 C 359.692 486.384 349.166 493.855 338.639 493.855 C 324.093 493.855 308.973 480.499 308.973 454.012 C 308.973 432.279 320.456 419.603 335.576 419.603 C 350.696 419.603 358.161 430.016 359.883 439.297 C 360.075 439.75 361.606 439.75 361.606 439.071 C 361.415 431.601 360.457 422.998 359.692 422.319 C 357.587 420.508 347.443 415.754 338.064 415.754 C 315.672 415.754 299.595 438.392 299.595 458.087 C 299.786 479.141 314.332 497.703 337.681 497.703 M 388.209 449.937 L 394.525 470.085 L 380.363 470.085 L 388.209 449.937 Z M 394.525 495.892 C 397.779 495.44 403.138 495.44 407.54 495.44 C 410.986 495.44 412.708 495.665 415.197 495.892 C 415.77 496.119 415.578 493.629 415.388 493.629 C 409.262 492.949 409.837 489.554 406.2 479.819 L 391.655 436.354 C 391.463 435.676 390.507 435.676 390.314 436.354 L 373.472 479.819 C 369.644 490.007 366.965 493.175 361.989 493.629 C 361.606 493.629 361.415 496.119 361.989 495.892 C 365.433 495.44 366.008 495.44 370.41 495.44 C 373.664 495.44 376.726 495.665 379.214 495.892 C 379.788 496.119 379.788 493.629 379.405 493.629 C 376.152 493.175 374.238 493.175 374.238 491.139 C 374.238 488.649 375.386 485.252 377.3 480.046 L 379.597 473.707 L 396.057 473.707 L 397.971 480.046 C 399.311 484.574 400.65 488.649 400.65 491.365 C 400.65 493.855 398.545 493.175 395.1 493.629 C 394.143 493.629 393.951 496.119 394.525 495.892 M 417.302 492.044 C 421.513 495.665 426.105 497.703 431.656 497.25 C 441.225 496.345 447.158 487.29 446.394 477.329 C 445.245 460.125 423.426 462.615 422.469 448.352 C 422.086 442.919 425.34 439.75 430.125 439.297 C 435.675 438.844 439.503 442.919 440.842 449.485 C 440.842 449.71 442.948 449.71 442.948 449.258 C 442.566 443.146 441.417 438.392 440.651 437.939 C 437.972 436.354 434.909 435.222 430.508 435.449 C 421.13 436.354 415.578 445.41 416.153 453.785 C 417.302 470.085 439.503 468.048 440.461 482.762 C 440.842 488.422 437.397 492.723 431.847 493.175 C 424 493.855 419.407 487.064 418.259 478.234 C 418.259 478.009 416.344 478.009 416.344 478.461 C 416.727 485.026 416.919 491.591 417.302 492.044 M 483.141 495.892 C 484.48 495.892 485.055 495.44 485.246 493.629 C 485.82 491.817 486.586 485.932 486.778 483.667 C 486.778 483.441 484.672 483.441 484.672 483.441 C 483.524 489.327 483.332 491.139 471.658 491.139 L 467.638 491.139 C 464.193 491.139 463.619 490.007 463.619 478.461 L 463.619 466.689 L 468.594 466.689 C 476.634 466.689 477.399 467.143 477.973 471.67 C 477.973 471.896 480.079 471.67 479.887 471.67 L 479.887 466.463 C 479.887 464.426 480.079 460.803 480.27 459.445 C 480.462 458.766 478.547 458.993 478.547 459.218 C 477.781 463.068 477.208 463.293 468.594 463.293 L 463.619 463.293 L 463.619 452.201 C 463.619 446.542 463.81 443.146 464.002 441.109 L 470.509 441.109 C 480.27 441.109 481.609 442.919 482.184 446.994 C 482.184 447.22 484.097 447.22 484.097 446.768 C 483.907 446.089 484.097 443.599 484.097 442.467 C 484.097 440.656 484.097 438.166 484.672 436.129 C 480.079 436.581 474.719 436.807 469.36 436.807 C 461.705 436.807 452.71 436.581 447.158 436.129 C 446.584 436.129 446.777 438.619 447.158 438.619 C 454.815 439.524 455.579 441.109 455.579 452.427 L 455.579 479.593 C 455.579 490.912 454.815 492.27 447.158 493.175 C 446.777 493.175 446.584 495.44 447.158 495.44 C 452.9 494.987 462.088 494.987 469.743 494.987 C 475.485 495.44 480.27 495.892 483.141 495.892 M 771.379 466.463 C 781.332 466.463 785.351 461.935 785.351 453.785 C 785.351 443.825 780.566 440.204 771.762 440.204 C 770.613 440.204 770.423 440.204 769.274 440.429 C 768.891 442.014 768.7 445.637 768.7 451.975 L 768.7 466.236 C 769.465 466.236 770.04 466.463 771.379 466.463 M 856.741 436.807 C 857.697 436.581 857.315 439.071 857.124 439.071 C 850.042 439.75 849.467 443.372 849.467 452.88 L 849.467 480.046 C 849.467 484.574 849.659 492.723 850.042 496.345 C 850.042 496.798 848.893 497.25 848.127 496.572 L 810.424 451.069 L 810.424 479.819 C 810.424 489.327 811.19 492.723 818.079 493.402 C 818.27 493.402 818.462 495.892 817.887 495.665 C 815.591 495.213 812.912 495.213 809.658 495.213 C 805.255 495.213 798.748 495.665 798.748 495.665 L 797.409 495.665 C 797.409 495.665 796.834 495.665 796.643 495.44 C 791.667 493.402 780.566 482.309 777.312 468.953 C 775.398 469.406 773.102 469.633 771.57 469.633 C 770.04 469.633 769.657 469.633 768.7 469.406 L 768.7 479.366 C 768.7 490.232 769.465 492.27 776.356 492.949 C 776.739 492.949 776.929 495.44 776.164 495.213 C 773.867 494.76 768.7 494.76 765.446 494.76 C 761.043 494.76 756.068 494.76 752.814 495.213 C 752.239 495.44 752.431 492.949 752.814 492.949 C 759.321 492.044 760.661 490.685 760.661 479.366 L 760.661 452.201 C 760.661 441.787 759.13 438.392 755.493 438.392 C 754.727 438.392 753.771 438.166 752.622 438.392 C 752.239 438.619 751.665 436.354 752.239 436.354 C 756.833 435.449 765.063 435.676 772.911 436.129 C 786.499 436.807 793.772 441.335 793.772 450.843 C 793.772 456.728 790.135 462.615 784.202 465.558 C 786.882 473.707 786.69 480.951 798.366 492.044 C 798.939 492.497 799.514 492.497 799.705 492.497 C 805.064 491.817 806.404 489.101 806.404 479.141 L 806.404 448.352 C 806.404 444.277 800.088 438.844 796.643 438.392 C 796.26 438.392 796.069 435.902 796.834 436.129 C 799.897 436.807 805.83 436.807 810.232 436.807 L 845.639 480.046 L 845.639 452.201 C 845.639 442.014 844.683 439.297 837.984 438.392 C 837.41 438.166 837.41 435.902 838.176 436.129 C 841.238 436.807 843.726 436.807 848.127 436.807 C 850.999 437.26 854.443 437.034 856.741 436.807 M 633.575 492.497 C 637.595 496.345 641.806 497.25 647.356 497.25 C 656.926 497.024 663.05 488.195 662.859 478.461 C 662.476 461.256 640.657 462.162 640.274 447.9 C 640.083 442.467 643.72 439.524 648.313 439.297 C 653.672 439.071 657.5 443.599 658.458 450.164 C 658.458 450.617 660.563 450.39 660.563 450.164 C 660.371 444.052 659.605 439.071 658.839 438.619 C 656.16 436.807 653.289 435.449 648.888 435.676 C 639.51 435.902 633.575 444.73 633.767 452.88 C 634.15 469.18 656.352 468.726 656.734 483.667 C 656.926 489.327 652.332 493.402 647.931 493.629 C 640.466 494.082 638.552 491.591 635.299 483.667 C 635.107 483.441 633.384 483.215 633.384 483.894 C 633.194 489.78 633.194 492.044 633.575 492.497 M 585.345 439.071 C 590.129 425.715 592.044 420.508 598.551 419.829 C 598.743 419.829 599.316 417.565 598.36 417.791 C 594.34 418.471 594.34 418.471 588.79 418.471 C 584.77 418.471 581.708 418.244 578.837 417.791 C 577.88 417.791 578.454 419.829 578.837 419.829 C 583.813 420.508 585.345 421.413 585.345 424.356 C 585.345 427.526 584.005 431.148 581.708 438.166 L 567.163 481.404 L 554.914 438.844 C 552.808 431.827 551.851 427.526 551.851 424.809 C 551.851 421.188 553.765 420.508 560.081 419.829 C 560.464 419.829 560.655 417.565 559.889 417.791 C 555.87 418.471 548.215 418.471 542.856 418.471 C 538.836 418.471 535.008 418.244 531.946 417.791 C 531.18 417.791 531.563 419.829 531.946 419.829 C 539.602 420.734 540.75 425.036 545.727 439.071 L 546.3 440.429 L 531.372 481.404 L 516.826 438.844 C 515.486 434.996 513.189 426.846 513.189 424.356 C 513.189 421.188 515.677 420.508 520.463 419.829 C 520.846 419.829 521.419 417.791 520.271 417.791 C 516.252 418.471 509.553 418.471 504.003 418.471 C 499.983 418.471 495.964 418.244 493.094 417.791 C 492.136 417.791 492.519 419.829 492.902 419.829 C 500.94 420.734 502.472 424.809 507.448 439.071 L 526.97 496.798 C 527.353 497.703 528.692 497.477 528.884 497.024 L 547.832 446.089 L 563.143 496.798 C 563.526 497.703 564.675 497.477 564.865 497.024 L 585.345 439.071 Z M 625.537 495.892 C 626.878 495.892 627.451 495.44 627.642 493.855 C 628.217 492.044 628.983 486.159 629.365 483.894 C 629.365 483.441 627.259 483.441 627.259 483.667 C 626.112 489.554 625.92 491.365 614.246 491.365 L 610.226 491.365 C 606.781 491.365 606.206 490.232 606.206 478.687 L 606.206 466.916 L 611.375 466.916 C 619.413 466.916 619.987 467.368 620.753 471.896 C 620.753 472.123 622.858 471.896 622.667 471.67 L 622.667 466.463 C 622.667 464.426 622.858 460.803 623.049 459.445 C 623.241 458.766 621.135 458.993 621.135 459.218 C 620.37 463.068 619.796 463.293 611.183 463.293 L 606.015 463.293 L 606.015 452.201 C 606.015 446.542 606.206 443.146 606.398 441.109 L 612.905 441.109 C 622.667 441.109 624.007 443.146 624.58 446.994 C 624.58 447.22 626.495 447.22 626.495 446.768 C 626.303 446.089 626.495 443.599 626.495 442.467 C 626.495 440.656 626.495 438.166 627.069 436.129 C 622.475 436.581 617.116 436.807 611.758 436.807 C 604.101 436.807 595.106 436.581 589.556 436.129 C 588.981 435.902 589.173 438.619 589.556 438.619 C 597.211 439.524 597.977 441.109 597.977 452.427 L 597.977 479.593 C 597.977 490.912 597.211 492.044 589.556 493.175 C 589.173 493.175 588.981 495.44 589.556 495.44 C 595.297 494.987 604.484 494.987 612.14 494.987 C 618.073 495.44 622.858 495.892 625.537 495.892 M 708.22 448.579 C 708.027 447.447 708.027 444.277 708.027 442.919 C 708.027 439.977 708.22 438.844 708.602 437.034 C 708.793 436.581 706.88 436.581 706.688 436.807 C 705.922 438.392 702.094 437.713 695.97 437.713 L 676.448 437.713 C 669.941 437.713 667.453 438.392 665.921 436.807 C 665.73 436.581 664.008 436.581 664.008 437.034 C 664.199 438.166 664.391 439.071 664.391 439.524 C 664.391 442.014 664.199 446.542 663.816 448.579 C 663.816 449.032 665.156 449.032 665.73 448.805 C 666.687 444.504 668.601 442.014 676.257 442.014 L 681.999 442.014 L 681.999 479.819 C 681.999 491.139 681.041 492.723 674.342 493.402 C 673.959 493.402 673.578 495.892 674.534 495.665 C 677.596 495.213 682.573 495.213 686.974 495.213 C 690.228 495.213 695.395 495.213 697.693 495.665 C 698.459 495.892 698.267 493.402 698.076 493.402 C 690.994 492.723 690.42 490.459 690.42 479.819 L 690.42 441.787 L 695.778 441.787 C 703.817 441.787 705.348 444.504 705.922 448.579 C 706.305 448.805 708.22 449.032 708.22 448.579 M 746.498 495.892 C 747.838 495.892 748.411 495.44 748.604 493.855 C 749.177 492.044 749.943 486.159 750.326 483.894 C 750.326 483.441 748.221 483.441 748.221 483.667 C 747.072 489.554 746.881 491.365 735.206 491.365 L 731.186 491.365 C 727.741 491.365 727.167 490.232 727.167 478.687 L 727.167 466.916 L 732.144 466.916 C 740.182 466.916 740.756 467.368 741.522 471.896 C 741.522 472.123 743.627 471.896 743.436 471.67 L 743.436 466.463 C 743.436 464.426 743.627 460.803 743.818 459.445 C 744.01 458.766 741.905 458.993 741.905 459.218 C 741.139 463.068 740.565 463.293 731.952 463.293 L 726.975 463.293 L 726.975 452.201 C 726.975 446.542 727.167 443.146 727.358 441.109 L 733.866 441.109 C 743.627 441.109 744.967 443.146 745.542 446.994 C 745.542 447.22 747.455 447.22 747.455 446.768 C 747.455 446.089 747.455 443.599 747.455 442.467 C 747.455 440.656 747.455 438.166 748.029 436.129 C 743.436 436.581 738.077 436.807 732.718 436.807 C 725.062 436.807 716.066 436.581 710.516 436.129 C 709.942 435.902 710.133 438.619 710.516 438.619 C 718.171 439.524 718.937 441.109 718.937 452.427 L 718.937 479.593 C 718.937 490.912 718.171 492.044 710.516 493.175 C 710.133 493.175 709.942 495.44 710.516 495.44 C 716.258 494.987 725.445 494.987 733.1 494.987 C 738.843 495.44 743.627 495.892 746.498 495.892 M 969.472 492.497 C 973.49 496.345 977.701 497.25 983.251 497.25 C 992.821 497.024 998.946 488.195 998.754 478.461 C 998.371 461.256 976.552 462.162 976.171 447.9 C 975.978 442.467 979.615 439.524 984.209 439.297 C 989.759 439.071 993.395 443.599 994.543 450.164 C 994.543 450.617 996.649 450.39 996.649 450.164 C 996.458 444.052 995.5 439.071 994.926 438.619 C 992.247 436.807 989.376 435.449 984.973 435.449 C 975.596 435.676 969.662 444.504 969.662 452.654 C 970.045 468.953 992.247 468.501 992.63 483.441 C 992.821 489.101 988.227 492.949 983.826 493.402 C 976.361 493.855 974.447 491.365 971.194 483.441 C 971.194 483.215 969.28 482.989 969.28 483.667 C 969.089 489.78 969.089 492.044 969.472 492.497 M 887.938 420.961 C 889.66 420.734 890.809 420.508 892.339 420.508 C 902.483 420.508 911.479 424.809 911.479 441.109 C 911.479 450.843 906.12 457.635 891 457.635 C 889.277 457.635 888.512 457.86 887.172 457.635 L 887.172 437.713 C 887.364 428.884 887.555 423.451 887.938 420.961 M 897.508 460.351 C 905.929 475.518 908.225 512.191 935.021 514.681 C 940.188 515.134 943.825 514.681 949.183 512.191 C 949.949 511.965 948.992 509.928 948.418 510.154 C 944.781 511.286 944.208 511.738 940.571 511.286 C 915.881 509.248 915.307 474.16 905.546 457.86 C 916.073 452.88 920.666 442.694 920.666 435.902 C 920.666 422.546 908.417 417.113 893.68 417.113 C 882.578 417.113 872.435 417.565 868.416 419.15 C 867.458 419.603 868.224 421.413 868.416 421.413 C 869.946 420.961 871.286 420.961 872.244 420.961 C 877.985 420.961 878.368 425.261 878.368 438.619 L 878.368 474.613 C 878.368 492.497 877.794 492.27 868.798 493.629 C 868.224 493.855 867.841 496.119 868.798 495.892 C 873.008 495.213 877.794 495.213 883.727 495.213 C 887.938 495.213 893.105 495.44 896.359 495.892 C 897.125 496.119 896.933 493.629 896.359 493.629 C 886.981 492.723 886.981 491.817 886.981 474.613 L 886.981 460.577 C 888.321 460.803 888.894 460.803 890.809 460.803 C 893.297 461.03 895.785 460.803 897.508 460.351 M 960.858 495.892 C 962.198 495.892 962.581 495.44 962.964 493.629 C 963.539 491.817 964.303 485.932 964.686 483.667 C 964.686 483.215 962.581 483.215 962.581 483.441 C 961.433 489.327 961.241 491.139 949.566 491.139 L 945.547 491.139 C 942.102 491.139 941.527 490.007 941.527 478.461 L 941.527 466.689 L 946.504 466.689 C 954.542 466.689 955.308 467.143 955.882 471.67 C 955.882 471.896 957.987 471.67 957.796 471.443 L 957.796 466.236 C 957.796 464.199 957.987 460.577 958.179 459.218 C 958.37 458.54 956.265 458.766 956.265 458.993 C 955.499 462.841 954.925 463.068 946.313 463.068 L 941.337 463.068 L 941.337 451.975 C 941.337 446.315 941.337 442.919 941.72 440.882 L 948.226 440.882 C 957.987 440.882 959.328 442.694 959.902 446.768 C 959.902 446.994 961.815 446.994 961.815 446.542 C 961.624 445.862 961.815 443.372 961.815 442.467 C 961.815 440.656 961.815 438.166 962.39 436.129 C 957.796 436.581 952.437 436.807 947.078 436.807 C 939.422 436.807 930.427 436.581 924.877 436.129 C 924.302 436.129 924.494 438.619 924.877 438.619 C 932.532 439.524 933.298 441.109 933.298 452.427 L 933.298 479.593 C 933.298 490.912 933.872 492.27 926.216 493.175 C 925.834 493.175 925.642 495.44 926.216 495.44 C 931.957 494.987 939.805 494.987 947.461 494.987 C 953.394 495.44 957.987 495.892 960.858 495.892 M 1036.459 495.892 C 1037.799 495.892 1038.372 495.44 1038.564 493.629 C 1039.138 491.817 1039.904 485.932 1040.287 483.667 C 1040.287 483.215 1038.182 483.215 1038.182 483.441 C 1037.033 489.327 1036.842 491.139 1025.167 491.139 L 1021.147 491.139 C 1017.702 491.139 1017.128 490.007 1017.128 478.461 L 1017.128 466.689 L 1022.105 466.689 C 1030.143 466.689 1030.909 467.143 1031.483 471.67 C 1031.483 471.896 1033.588 471.67 1033.397 471.443 L 1033.397 466.236 C 1033.397 464.199 1033.588 460.577 1033.779 459.218 C 1033.971 458.54 1031.866 458.766 1031.866 458.993 C 1031.1 462.841 1030.526 463.068 1021.913 463.068 L 1016.936 463.068 L 1016.936 451.975 C 1016.936 446.315 1017.128 442.919 1017.319 440.882 L 1023.827 440.882 C 1033.588 440.882 1034.927 442.694 1035.502 446.768 C 1035.502 446.994 1037.416 446.994 1037.416 446.542 C 1037.225 445.862 1037.416 443.372 1037.416 442.467 C 1037.416 440.656 1037.416 438.166 1037.989 436.129 C 1033.397 436.581 1028.038 436.807 1022.678 436.807 C 1015.023 436.807 1006.028 436.581 1000.477 436.129 C 999.903 436.129 1000.094 438.619 1000.477 438.619 C 1008.133 439.524 1008.898 441.109 1008.898 452.427 L 1008.898 479.593 C 1008.898 490.912 1008.133 492.27 1000.477 493.175 C 1000.094 493.175 999.903 495.44 1000.477 495.44 C 1006.028 494.987 1015.406 494.987 1023.061 494.987 C 1028.994 495.44 1033.588 495.892 1036.459 495.892 M 1058.086 440.429 C 1059.235 440.204 1059.426 440.204 1060.574 440.204 C 1069.378 440.204 1074.163 443.825 1074.163 453.785 C 1074.163 461.935 1070.144 466.463 1060.191 466.463 C 1058.852 466.463 1058.278 466.236 1057.32 466.236 L 1057.32 451.975 C 1057.512 445.41 1057.703 442.014 1058.086 440.429 M 1060.383 469.858 C 1061.914 469.858 1064.211 469.406 1066.124 469.18 C 1069.378 483.215 1080.097 497.25 1096.748 497.25 C 1097.321 497.25 1097.131 494.987 1096.748 494.987 C 1087.943 494.987 1077.034 478.461 1073.015 466.236 C 1078.948 463.293 1082.584 457.408 1082.584 451.295 C 1082.584 441.787 1075.312 436.354 1061.531 436.581 C 1053.685 436.581 1045.454 435.676 1042.009 436.807 C 1041.436 437.034 1041.818 439.297 1042.392 438.844 C 1043.541 438.619 1043.541 438.619 1044.305 438.619 C 1047.942 438.619 1049.474 442.24 1049.474 452.654 L 1049.474 479.819 C 1049.474 491.139 1048.325 492.723 1041.626 493.402 C 1041.436 493.402 1041.053 495.892 1041.626 495.665 C 1044.88 495.213 1049.857 495.213 1054.258 495.213 C 1057.512 495.213 1062.68 495.44 1064.977 495.665 C 1065.551 495.892 1065.359 493.402 1065.168 493.402 C 1058.278 492.723 1057.512 490.459 1057.512 479.819 L 1057.512 469.858 C 1058.278 469.858 1058.852 469.858 1060.383 469.858 M 1125.456 452.88 C 1129.476 442.24 1132.155 439.524 1136.941 439.071 C 1137.323 439.071 1137.323 437.26 1136.749 437.26 C 1133.304 437.26 1132.921 437.26 1128.52 437.26 C 1125.266 437.26 1122.204 437.034 1119.906 436.581 C 1119.332 436.354 1119.523 438.844 1119.906 438.844 C 1123.16 439.297 1124.883 439.977 1124.883 442.014 C 1124.883 444.277 1124.5 445.862 1122.204 452.654 L 1111.294 482.309 L 1100.193 452.654 C 1098.087 446.994 1097.704 443.825 1097.704 442.014 C 1097.704 439.524 1099.619 439.297 1102.873 438.844 C 1103.447 438.619 1103.447 436.354 1102.873 436.581 C 1099.81 437.26 1094.259 437.26 1089.858 437.26 C 1086.795 437.26 1082.202 437.034 1079.714 436.581 C 1079.139 436.354 1079.331 438.844 1079.714 438.844 C 1085.838 439.524 1088.136 442.919 1091.771 452.654 L 1107.848 496.119 C 1108.231 496.798 1109.38 496.572 1109.38 496.345 L 1125.456 452.88 Z M 1166.223 495.892 C 1167.563 495.892 1167.946 495.44 1168.329 493.629 C 1168.904 491.817 1169.668 485.932 1170.051 483.667 C 1170.051 483.215 1167.946 483.215 1167.946 483.441 C 1166.798 489.327 1166.606 491.139 1154.931 491.139 L 1150.912 491.139 C 1147.467 491.139 1146.893 490.007 1146.893 478.461 L 1146.893 466.689 L 1151.869 466.689 C 1159.907 466.689 1160.482 467.143 1161.247 471.67 C 1161.247 471.896 1163.352 471.67 1163.161 471.443 L 1163.161 466.236 C 1163.161 464.199 1163.352 460.577 1163.544 459.218 C 1163.544 458.54 1161.63 458.766 1161.63 458.993 C 1160.864 462.841 1160.29 463.068 1151.678 463.068 L 1146.702 463.068 L 1146.702 451.975 C 1146.702 446.315 1146.702 442.919 1147.085 440.882 L 1153.591 440.882 C 1163.352 440.882 1164.693 442.694 1165.267 446.768 C 1165.267 446.994 1167.18 446.994 1167.18 446.542 C 1167.18 445.862 1167.18 443.372 1167.18 442.467 C 1167.18 440.656 1167.18 438.166 1167.755 436.129 C 1163.161 436.581 1157.802 436.807 1152.443 436.807 C 1144.787 436.807 1135.792 436.581 1130.242 436.807 C 1129.667 436.807 1129.859 438.619 1130.242 438.619 C 1137.898 439.524 1138.663 441.109 1138.663 452.427 L 1138.663 479.593 C 1138.663 490.912 1137.898 492.27 1130.242 493.175 C 1129.859 493.175 1129.667 495.44 1130.242 495.44 C 1135.983 494.987 1145.17 494.987 1152.826 494.987 C 1158.568 495.44 1163.352 495.892 1166.223 495.892 M 338.83 528.038 C 338.83 520.568 339.404 518.531 344.572 518.078 C 344.763 518.078 344.955 516.266 344.38 516.493 C 342.658 516.719 339.979 516.946 337.681 516.946 C 334.237 516.946 332.514 516.946 330.026 516.493 C 329.643 516.266 329.643 518.078 330.026 518.078 C 335.002 518.756 335.959 520.115 335.959 528.038 L 335.959 544.337 C 335.959 553.618 331.94 558.599 324.093 558.599 C 318.16 558.599 312.227 553.845 312.227 543.205 L 312.227 528.717 C 312.227 520.568 312.61 518.756 317.968 518.078 C 318.351 518.078 318.351 516.266 317.968 516.493 C 316.054 516.719 312.227 516.946 309.738 516.946 C 306.294 516.946 302.466 516.946 300.168 516.493 C 299.595 516.266 299.786 518.078 300.168 518.078 C 305.145 518.756 306.102 519.888 306.102 528.717 L 306.102 544.79 C 306.102 555.656 313.757 562.448 322.753 562.448 C 333.088 562.448 339.022 554.525 339.022 545.243 L 339.022 528.038 L 338.83 528.038 Z M 409.454 528.491 C 409.454 521.246 409.837 518.531 415.388 518.078 C 415.578 518.078 415.961 516.266 415.197 516.266 C 413.473 516.493 410.794 516.719 408.306 516.719 C 404.861 516.719 402.946 516.719 400.65 516.266 C 400.267 516.04 400.267 517.851 400.65 518.078 C 405.627 518.756 406.392 520.794 406.392 528.491 L 406.392 549.77 L 379.405 516.719 C 376.152 516.719 371.559 516.719 369.261 516.266 C 368.878 516.04 368.878 518.078 369.261 518.078 C 371.942 518.531 376.726 522.606 376.726 525.774 L 376.726 549.318 C 376.726 557.015 375.96 559.053 370.793 559.731 C 370.602 559.731 370.41 561.543 370.793 561.543 C 373.281 561.089 375.769 561.089 379.214 561.089 C 381.702 561.089 383.808 561.089 385.53 561.543 C 385.913 561.768 385.913 559.731 385.721 559.731 C 380.363 559.278 379.788 556.562 379.788 549.318 L 379.788 527.359 L 408.689 561.995 C 409.072 562.448 410.028 562.221 410.028 561.995 C 409.645 559.053 409.645 552.94 409.645 549.545 L 409.645 528.491 L 409.454 528.491 Z M 453.857 561.089 C 456.154 561.089 460.173 561.089 461.897 561.543 C 462.47 561.543 462.278 559.731 462.088 559.731 C 456.728 559.278 456.154 557.468 456.154 549.318 L 456.154 528.717 C 456.154 520.568 456.728 518.756 462.088 518.304 C 462.278 518.304 462.47 516.493 461.897 516.493 C 460.173 516.719 456.154 516.946 453.857 516.946 C 450.412 516.946 446.584 516.946 444.288 516.493 C 443.713 516.493 443.905 518.304 444.096 518.304 C 449.264 518.983 450.029 520.115 450.029 528.717 L 450.029 549.318 C 450.029 557.92 449.264 559.053 444.096 559.731 C 443.905 559.731 443.523 561.543 444.096 561.543 C 446.777 561.089 450.412 561.089 453.857 561.089 M 523.333 528.717 C 526.396 520.568 528.501 518.531 532.137 518.078 C 532.329 518.078 532.52 516.04 532.137 516.266 C 529.841 516.719 529.267 516.719 525.63 516.719 C 523.142 516.719 520.846 516.493 518.931 516.266 C 518.548 516.04 518.74 518.078 518.931 518.078 C 521.419 518.304 522.759 518.983 522.759 520.341 C 522.759 521.926 522.568 523.284 520.654 528.491 L 512.232 551.128 L 503.811 528.491 C 502.279 524.189 501.898 521.699 501.898 520.341 C 501.898 518.531 503.428 518.304 505.916 518.078 C 506.299 518.078 506.299 516.04 505.916 516.266 C 503.62 516.719 499.41 516.719 495.964 516.719 C 493.477 516.719 490.03 516.493 488.308 516.266 C 487.925 516.04 488.117 518.078 488.308 518.078 C 492.902 518.531 494.624 521.246 497.495 528.717 L 509.744 561.768 C 509.936 562.448 510.893 562.221 511.084 561.768 L 523.333 528.717 Z M 583.24 561.316 C 584.196 561.316 584.579 561.089 584.962 559.731 C 585.345 558.373 585.919 553.845 586.111 552.26 C 586.111 552.035 584.579 552.035 584.579 552.035 C 583.813 556.562 583.43 557.92 574.626 557.92 L 571.564 557.92 C 568.885 557.92 568.502 557.015 568.502 548.412 L 568.502 539.357 L 572.33 539.357 C 578.454 539.357 579.029 539.584 579.603 543.205 C 579.603 543.205 581.325 543.205 581.134 542.979 L 581.134 539.13 C 581.134 537.546 581.134 534.829 581.517 533.697 C 581.517 533.245 580.178 533.245 580.178 533.471 C 579.603 536.414 579.029 536.64 572.521 536.64 L 568.693 536.64 L 568.693 528.264 C 568.693 523.963 568.693 521.473 569.076 519.888 L 574.053 519.888 C 581.517 519.888 582.474 521.246 582.857 524.416 C 582.857 524.642 584.388 524.416 584.388 524.416 C 584.388 523.963 584.388 521.926 584.388 521.246 C 584.388 519.888 584.388 518.078 584.77 516.493 C 581.134 516.946 577.307 516.946 573.096 516.946 C 567.163 516.946 560.464 516.946 556.061 516.493 C 555.488 516.493 555.87 518.304 556.061 518.304 C 561.994 518.983 562.377 520.115 562.377 528.717 L 562.377 549.318 C 562.377 557.92 561.804 558.826 556.061 559.731 C 555.87 559.731 555.488 561.543 556.061 561.543 C 560.272 561.089 567.354 561.089 573.287 561.089 C 577.497 561.089 581.134 561.316 583.24 561.316 M 629.365 518.983 C 630.13 518.983 630.513 518.756 631.279 518.756 C 637.978 518.756 641.615 521.473 641.615 529.17 C 641.615 535.282 638.552 538.904 630.896 538.904 C 629.94 538.904 629.365 538.677 628.791 538.677 L 628.791 527.812 C 628.983 523.058 628.983 520.341 629.365 518.983 M 631.088 541.62 C 632.236 541.62 633.958 541.395 635.49 541.168 C 637.978 552.035 645.251 562.448 657.883 562.448 C 658.265 562.448 658.075 560.636 657.883 560.636 C 651.184 560.636 643.911 547.96 640.657 538.677 C 645.251 536.414 647.931 531.887 647.931 527.359 C 647.931 520.115 642.38 516.04 632.045 516.04 C 625.729 516.04 618.838 516.493 616.351 517.398 C 615.968 517.398 616.351 519.209 616.542 518.983 C 617.308 518.756 618.073 518.756 618.647 518.756 C 621.326 518.756 622.667 520.568 622.667 528.491 L 622.667 549.092 C 622.667 557.693 621.709 558.826 616.733 559.505 C 616.542 559.505 616.351 561.316 616.733 561.316 C 619.221 560.863 623.049 560.863 626.303 560.863 C 628.791 560.863 632.619 560.863 634.533 561.316 C 634.916 561.543 634.916 559.505 634.533 559.505 C 629.365 559.053 628.791 557.241 628.791 549.092 L 628.791 541.395 C 629.557 541.62 629.94 541.62 631.088 541.62 M 685.061 558.146 C 688.315 560.863 691.568 562.674 695.97 562.448 C 703.243 561.995 707.837 554.978 707.454 547.507 C 706.688 534.377 690.037 535.962 689.462 525.096 C 689.272 521.021 691.76 518.531 695.395 518.304 C 699.606 518.078 702.477 521.246 703.434 526.227 C 703.434 526.454 704.965 526.454 704.965 526.001 C 704.775 521.473 704.009 517.625 703.434 517.398 C 701.329 516.266 699.032 515.134 695.778 515.361 C 688.697 516.04 684.295 522.831 684.486 528.944 C 685.252 541.395 702.094 540.037 702.86 551.582 C 703.052 555.883 700.372 559.053 696.161 559.505 C 690.228 559.958 686.783 554.751 686.018 547.733 C 686.018 547.507 684.486 547.507 684.678 547.96 C 684.678 552.713 684.678 557.92 685.061 558.146 M 748.604 561.089 C 750.9 561.089 754.92 561.089 756.642 561.543 C 757.216 561.543 757.025 559.731 756.833 559.731 C 751.475 559.278 750.9 557.468 750.9 549.318 L 750.9 528.717 C 750.9 520.568 751.475 518.756 756.833 518.304 C 757.025 518.304 757.408 516.493 756.642 516.493 C 754.92 516.719 750.9 516.946 748.604 516.946 C 745.159 516.946 741.331 516.946 739.034 516.493 C 738.46 516.493 738.651 518.304 738.843 518.304 C 744.01 518.983 744.776 520.115 744.776 528.717 L 744.776 549.318 C 744.776 557.92 744.01 559.053 738.843 559.731 C 738.651 559.731 738.268 561.543 738.843 561.543 C 741.331 561.089 745.159 561.089 748.604 561.089 M 822.481 525.321 C 822.481 524.416 822.481 522.152 822.481 521.021 C 822.481 518.756 822.673 518.531 822.864 517.171 C 823.056 516.719 821.716 516.719 821.524 516.946 C 821.141 517.851 820.758 516.946 812.337 516.946 L 798.366 516.946 C 789.944 516.946 789.944 517.851 789.37 516.946 C 789.178 516.719 788.03 516.719 788.03 516.946 C 788.03 517.398 788.222 517.851 788.222 518.078 C 788.222 519.888 788.222 523.511 787.839 525.096 C 787.839 525.321 788.988 525.321 789.178 525.321 C 789.944 522.152 792.24 520.115 798.175 520.115 L 802.193 520.115 L 802.193 549.092 C 802.193 557.693 801.427 558.826 796.26 559.505 C 796.069 559.505 795.686 561.316 796.26 561.316 C 798.748 560.863 802.385 560.863 805.83 560.863 C 808.318 560.863 812.337 560.863 814.059 561.316 C 814.634 561.316 814.442 559.505 814.251 559.505 C 808.892 559.053 808.318 557.241 808.318 549.092 L 808.318 520.115 L 812.146 520.115 C 818.27 520.115 820.375 522.152 820.758 525.321 C 820.95 525.548 822.481 525.548 822.481 525.321 M 890.043 518.531 C 891 518.531 892.914 518.531 893.871 518.983 C 894.254 519.209 894.637 517.398 894.254 517.398 C 893.105 516.946 890.426 516.493 889.086 516.493 C 882.196 516.493 875.88 522.831 872.435 534.15 C 870.139 523.963 863.057 516.04 854.443 516.04 C 852.53 516.04 850.425 516.493 848.51 517.398 C 848.127 517.398 848.51 518.983 848.51 518.983 C 849.276 518.756 849.85 518.756 850.616 518.756 C 859.612 518.756 867.458 530.981 867.458 547.733 L 867.458 549.545 C 867.458 558.146 866.692 559.278 861.525 559.958 C 861.334 559.958 860.951 561.768 861.525 561.768 C 864.013 561.316 867.841 561.316 871.095 561.316 C 873.391 561.316 877.411 561.316 879.324 561.768 C 879.707 561.995 879.707 559.958 879.324 559.958 C 873.966 559.505 873.583 557.693 873.583 549.545 L 873.583 547.733 C 873.774 532.112 880.665 518.531 890.043 518.531 M 1168.904 381.797 L 299.595 381.797 L 299.595 387.231 L 1168.904 387.231 L 1168.904 381.797 Z" style=""/>
  <rect x="21.5" y="222.2" class="st0" width="236.754" height="339.568" style=""/>
  <path class="st1" d="M 55.377 523.058 L 54.036 428.431 C 100.736 448.805 124.661 490.912 136.527 523.963 L 55.377 523.058 Z M 233.755 359.838 C 232.032 359.838 232.032 362.328 232.032 362.328 L 228.397 524.642 L 143.609 523.737 C 140.93 513.55 135.38 498.609 132.699 491.591 L 206.003 513.776 C 206.195 513.776 206.195 513.776 206.386 513.776 C 207.343 513.776 208.108 512.871 208.108 511.738 C 208.108 510.833 207.726 510.154 206.961 509.701 C 206.386 509.475 155.284 487.516 134.614 478.914 L 212.511 474.613 C 213.467 474.613 214.042 473.707 214.042 472.576 C 214.042 471.443 213.276 470.538 212.511 470.538 L 131.552 466.236 L 211.745 430.469 C 212.319 430.242 212.702 429.336 212.702 428.658 C 212.702 427.526 211.937 426.621 210.979 426.621 C 210.788 426.621 210.788 426.621 210.596 426.621 L 126.192 454.918 L 212.894 369.346 C 213.276 368.893 213.467 368.441 213.467 367.762 C 213.467 366.63 212.702 365.725 211.745 365.725 C 211.362 365.725 210.979 365.95 210.596 366.403 L 120.833 443.825 L 204.089 297.811 C 204.28 297.584 204.472 297.131 204.472 296.679 C 204.472 295.547 203.706 294.641 202.75 294.641 C 202.175 294.641 201.792 294.868 201.218 295.774 L 111.646 435.902 L 144.184 304.149 C 144.184 303.922 144.184 303.697 144.184 303.47 C 144.184 302.339 143.418 301.432 142.46 301.432 C 141.695 301.432 141.121 302.112 140.738 302.791 L 101.311 429.789 C 101.311 429.789 100.163 313.205 100.163 313.205 C 100.163 312.072 99.397 311.167 98.44 311.167 C 97.484 311.167 96.718 312.072 96.718 313.205 C 96.526 317.28 91.741 400.134 90.019 427.752 L 66.86 343.992 C 66.478 342.634 65.904 341.502 64.563 341.954 C 62.841 342.407 63.416 344.897 63.416 344.897 L 79.492 430.016 C 71.454 425.488 62.841 421.64 53.846 419.15 L 51.548 258.874 L 148.394 253.44 C 148.394 253.44 150.691 253.667 150.691 251.403 C 150.691 249.139 148.394 249.366 148.394 249.366 L 44.468 249.366 L 45.232 534.604 L 235.477 533.697 L 235.477 362.782 C 235.477 362.555 235.477 360.065 233.755 359.838" style=""/>
</svg>