<?xml version="1.0" standalone="no"?>
<!DOCTYPE svg PUBLIC "-//W3C//DTD SVG 20010904//EN"
 "http://www.w3.org/TR/2001/REC-SVG-20010904/DTD/svg10.dtd">
<svg version="1.0" xmlns="http://www.w3.org/2000/svg"
 width="300.000000pt" height="300.000000pt" viewBox="0 0 300.000000 300.000000"
 preserveAspectRatio="xMidYMid meet">
<metadata>
Created by potrace 1.10, written by Peter Selinger 2001-2011
</metadata>
<g transform="translate(0.000000,300.000000) scale(0.100000,-0.100000)"
fill="#000000" stroke="none">
<path d="M5 2988 c-3 -7 -4 -681 -3 -1498 l3 -1485 1495 0 1495 0 3 1498 2
1497 -1495 0 c-1187 0 -1497 -3 -1500 -12z m2975 -1488 l0 -1480 -1480 0
-1480 0 0 1480 0 1480 1480 0 1480 0 0 -1480z"/>
<path d="M1862 2808 c-45 -15 -118 -82 -145 -132 -19 -35 -22 -57 -22 -156 0
-108 2 -118 29 -168 53 -95 128 -133 260 -131 44 0 104 6 131 13 l50 11 3 114
c1 63 1 120 -1 126 -3 6 -24 9 -51 7 l-46 -4 0 -88 c0 -82 -1 -88 -22 -94 -67
-18 -161 7 -201 52 -29 32 -46 91 -47 157 0 77 14 126 47 166 52 62 119 73
241 39 39 -11 74 -20 77 -20 3 0 5 20 5 45 0 36 -4 47 -22 56 -30 16 -244 21
-286 7z m276 -14 c18 -5 22 -14 22 -44 l0 -37 -67 19 c-135 38 -233 11 -278
-78 -11 -22 -22 -40 -25 -41 -13 -7 7 -191 25 -226 34 -72 131 -111 229 -93
l36 7 0 89 0 90 40 0 40 0 0 -114 0 -113 -57 -12 c-31 -6 -90 -11 -131 -11
-68 0 -73 1 -61 17 13 15 12 15 -8 3 -51 -33 -160 59 -190 159 -36 124 1 285
80 345 61 47 102 56 217 52 58 -3 115 -8 128 -12z"/>
<path d="M1925 2790 c-3 -5 -4 -13 -2 -17 6 -10 83 -10 80 0 -2 4 -3 10 -3 13
0 4 -7 1 -15 -6 -11 -9 -15 -9 -15 -1 0 9 -5 9 -22 0 -18 -10 -20 -9 -15 5 7
18 2 22 -8 6z"/>
<path d="M1895 2771 c-3 -5 -1 -12 5 -16 5 -3 10 1 10 9 0 18 -6 21 -15 7z"/>
<path d="M2080 2770 c0 -5 4 -10 9 -10 6 0 13 5 16 10 3 6 -1 10 -9 10 -9 0
-16 -4 -16 -10z"/>
<path d="M1841 2757 c-8 -10 -7 -14 2 -14 8 0 14 6 14 14 0 7 -1 13 -2 13 -2
0 -8 -6 -14 -13z"/>
<path d="M1799 2738 c-6 -23 -5 -39 3 -45 6 -3 8 -1 4 5 -3 6 3 12 14 14 l21
3 -21 13 c-11 7 -20 11 -21 10z"/>
<path d="M1757 2669 c-18 -11 -14 -29 6 -29 8 0 8 3 -1 9 -11 7 -11 9 2 14 8
3 17 1 20 -6 2 -7 5 -4 5 6 1 19 -6 21 -32 6z"/>
<path d="M1735 2561 c-3 -5 -2 -12 3 -15 5 -3 9 1 9 9 0 17 -3 19 -12 6z"/>
<path d="M1715 2470 c3 -5 8 -10 11 -10 2 0 4 5 4 10 0 6 -5 10 -11 10 -5 0
-7 -4 -4 -10z"/>
<path d="M1743 2475 c4 -5 0 -16 -8 -25 -13 -14 -12 -16 8 -17 12 0 16 1 9 4
-9 4 -10 8 -2 18 8 10 8 15 -2 21 -7 4 -10 3 -5 -1z"/>
<path d="M2115 2442 c-16 -12 -16 -32 0 -26 8 4 13 10 10 14 -3 5 1 11 7 13 7
3 9 6 3 6 -5 0 -14 -3 -20 -7z"/>
<path d="M1749 2403 c-13 -16 -12 -17 4 -4 9 7 17 15 17 17 0 8 -8 3 -21 -13z"/>
<path d="M2127 2384 c-3 -3 -3 -17 -1 -31 3 -14 0 -31 -7 -39 -8 -10 -8 -14 0
-14 12 0 13 6 16 58 1 35 1 35 -8 26z"/>
<path d="M1788 2373 c6 -2 10 -8 8 -12 -3 -4 1 -8 9 -8 11 0 12 4 4 14 -6 7
-17 13 -23 12 -7 0 -6 -2 2 -6z"/>
<path d="M1813 2317 c0 -9 9 -12 26 -9 23 5 24 6 6 13 -29 11 -32 11 -32 -4z"/>
<path d="M1890 2280 c-13 -8 -12 -10 3 -10 9 0 17 5 17 10 0 12 -1 12 -20 0z"/>
<path d="M1965 2270 c-4 -6 -10 -8 -15 -5 -5 3 -11 2 -14 -3 -2 -4 6 -8 18 -8
12 0 23 6 23 13 0 16 -4 16 -12 3z"/>
<path d="M2001 2264 c0 -11 3 -14 6 -6 3 7 2 16 -1 19 -3 4 -6 -2 -5 -13z"/>
<path d="M2035 2250 c-3 -5 -1 -10 4 -10 6 0 11 5 11 10 0 6 -2 10 -4 10 -3 0
-8 -4 -11 -10z"/>
<path d="M2534 2795 c-54 -32 -78 -81 -72 -147 6 -62 35 -92 150 -163 46 -28
89 -62 97 -76 20 -35 7 -75 -29 -94 -39 -20 -79 -19 -150 6 -33 11 -64 18 -70
14 -5 -3 -10 -25 -10 -49 l0 -43 51 -11 c166 -39 289 7 319 119 23 84 -20 147
-151 224 -114 66 -135 103 -83 144 32 25 63 26 130 6 72 -22 74 -21 74 30 0
42 -1 44 -37 54 -21 6 -69 11 -108 11 -57 0 -78 -5 -111 -25z m209 4 c34 -9
37 -13 37 -44 0 -19 -5 -35 -11 -35 -5 0 -8 3 -6 8 3 4 -5 8 -16 9 -12 0 -50
4 -84 8 -57 7 -63 6 -87 -18 -43 -43 -32 -89 29 -127 19 -12 33 -26 30 -31 -4
-5 0 -6 8 -3 20 7 135 -73 152 -107 8 -15 15 -51 15 -78 0 -42 -5 -56 -30 -85
-46 -51 -103 -70 -198 -63 -104 7 -112 11 -112 58 l0 38 57 -20 c84 -29 138
-26 174 10 36 36 38 78 6 112 -12 14 -60 47 -106 74 -50 30 -93 64 -107 85
-47 69 -22 160 56 201 39 21 132 25 193 8z"/>
<path d="M2695 2790 c-10 -17 4 -28 27 -22 13 3 19 1 15 -6 -4 -6 0 -9 8 -8 9
1 14 6 13 12 -2 5 -6 8 -10 7 -5 -2 -8 2 -8 7 0 7 -7 7 -22 -1 -18 -10 -20 -9
-15 5 7 18 2 22 -8 6z"/>
<path d="M2576 2778 c3 -4 11 -5 19 -1 21 7 19 12 -4 10 -11 0 -18 -5 -15 -9z"/>
<path d="M2556 2757 c3 -10 9 -15 12 -12 3 3 0 11 -7 18 -10 9 -11 8 -5 -6z"/>
<path d="M2517 2733 c-10 -10 -8 -23 4 -23 5 0 8 4 5 9 -4 5 0 12 6 14 7 3 8
6 2 6 -6 1 -14 -2 -17 -6z"/>
<path d="M2495 2690 c-3 -5 1 -12 9 -17 8 -4 15 -12 15 -18 0 -5 5 -11 13 -13
10 -3 10 -2 -1 6 -7 5 -9 11 -4 13 5 2 1 12 -9 21 -9 10 -20 13 -23 8z"/>
<path d="M2486 2635 c4 -8 10 -15 16 -15 5 0 6 -5 2 -12 -5 -7 -3 -8 5 -4 9 6
8 13 -5 27 -21 23 -25 24 -18 4z"/>
<path d="M2571 2573 c13 -15 31 -14 30 2 0 6 -10 11 -21 11 -16 1 -18 -1 -9
-13z"/>
<path d="M2615 2540 c-3 -5 0 -7 8 -4 8 3 17 -3 21 -13 6 -15 8 -15 16 -3 6 8
10 20 10 25 0 6 -4 4 -9 -4 -6 -9 -11 -10 -15 -2 -9 14 -23 14 -31 1z"/>
<path d="M2757 2460 c10 -11 19 -20 21 -20 1 0 -2 9 -8 20 -6 11 -15 20 -20
20 -6 0 -2 -9 7 -20z"/>
<path d="M2726 2437 c3 -10 9 -15 12 -12 3 3 0 11 -7 18 -10 9 -11 8 -5 -6z"/>
<path d="M2774 2402 c3 -6 2 -13 -4 -17 -16 -10 -11 -24 9 -22 19 1 18 31 -2
44 -5 3 -7 1 -3 -5z"/>
<path d="M2737 2319 c-20 -23 -15 -39 5 -17 12 12 22 38 15 38 -1 0 -11 -9
-20 -21z"/>
<path d="M2496 2287 c3 -10 9 -15 12 -12 3 3 0 11 -7 18 -10 9 -11 8 -5 -6z"/>
<path d="M2525 2280 c-3 -5 1 -10 9 -10 8 0 18 -5 22 -11 4 -8 -1 -9 -17 -5
-21 6 -22 6 -6 -4 20 -13 30 -8 33 16 1 9 0 13 -3 10 -4 -3 -12 -1 -19 5 -8 7
-14 7 -19 -1z"/>
<path d="M2590 2256 c6 -6 18 -5 32 2 22 10 21 10 -9 9 -19 -1 -28 -6 -23 -11z"/>
<path d="M2666 2248 c3 -5 10 -6 15 -3 13 9 11 12 -6 12 -8 0 -12 -4 -9 -9z"/>
<path d="M187 2804 c-4 -4 -7 -135 -7 -291 l0 -284 53 3 52 3 3 106 3 106 59
6 c75 8 131 36 167 83 22 30 28 49 31 103 3 57 0 71 -20 101 -37 55 -67 65
-208 68 -69 2 -129 0 -133 -4z m290 -27 c42 -22 63 -64 63 -122 0 -60 -19
-103 -63 -142 -34 -30 -105 -53 -162 -53 -13 0 -35 -11 -49 -25 -14 -14 -22
-25 -18 -25 5 0 13 5 20 12 9 9 12 4 12 -26 0 -33 -2 -37 -15 -26 -9 7 -18 10
-22 6 -3 -3 -1 -6 6 -6 7 0 9 -5 6 -10 -4 -6 -1 -9 7 -8 9 2 13 -12 13 -52 l0
-55 -42 -3 -43 -3 0 282 0 281 128 -4 c94 -3 135 -9 159 -21z"/>
<path d="M266 2778 c3 -4 11 -5 19 -1 21 7 19 12 -4 10 -11 0 -18 -5 -15 -9z"/>
<path d="M383 2765 c0 -23 1 -25 9 -11 8 13 13 15 24 5 8 -6 14 -8 14 -3 0 5
7 0 16 -11 14 -19 14 -19 10 5 -2 14 -5 27 -5 30 -1 2 -6 -1 -13 -8 -8 -8 -15
-9 -25 -1 -7 7 -13 8 -13 3 0 -5 -4 -3 -9 5 -6 9 -8 5 -8 -14z"/>
<path d="M355 2771 c-3 -5 -1 -12 5 -16 5 -3 10 1 10 9 0 18 -6 21 -15 7z"/>
<path d="M247 2755 c6 -11 9 -28 8 -37 -2 -10 0 -20 5 -23 12 -8 3 56 -10 68
-10 10 -10 8 -3 -8z"/>
<path d="M300 2759 c0 -5 5 -7 10 -4 6 3 10 8 10 11 0 2 -4 4 -10 4 -5 0 -10
-5 -10 -11z"/>
<path d="M210 2736 c0 -2 7 -7 16 -10 8 -3 12 -2 9 4 -6 10 -25 14 -25 6z"/>
<path d="M279 2703 c-1 -21 -1 -60 0 -87 1 -45 0 -48 -16 -35 -17 13 -17 13 0
-7 9 -11 17 -28 17 -36 0 -11 12 -17 34 -20 19 -2 33 -1 30 3 -2 4 10 9 26 13
49 9 80 51 80 106 0 25 -6 54 -13 64 -14 18 -72 35 -124 36 -31 0 -33 -2 -34
-37z m139 1 c17 -12 22 -24 22 -60 0 -37 -5 -51 -29 -75 -16 -16 -40 -29 -53
-29 -13 0 -33 -3 -45 -6 -23 -6 -23 -5 -23 96 l0 102 53 -7 c28 -4 62 -13 75
-21z"/>
<path d="M465 2711 c-7 -12 12 -24 25 -16 11 7 4 25 -10 25 -5 0 -11 -4 -15
-9z"/>
<path d="M490 2679 c-13 -7 -12 -9 2 -9 9 0 19 -6 21 -12 3 -8 6 -7 6 4 1 22
-11 29 -29 17z"/>
<path d="M205 2661 c1 -8 8 -17 16 -19 11 -3 12 -2 1 6 -11 8 -11 10 2 15 8 3
17 1 20 -6 2 -7 5 -5 5 4 1 12 -7 16 -23 15 -14 0 -23 -7 -21 -15z"/>
<path d="M484 2645 c3 -23 22 -39 30 -26 4 6 0 11 -8 11 -10 0 -13 6 -10 15 4
8 2 15 -4 15 -6 0 -9 -7 -8 -15z"/>
<path d="M245 2610 c-3 -5 1 -10 10 -10 9 0 13 5 10 10 -3 6 -8 10 -10 10 -2
0 -7 -4 -10 -10z"/>
<path d="M465 2600 c-3 -6 1 -7 9 -4 18 7 21 14 7 14 -6 0 -13 -4 -16 -10z"/>
<path d="M229 2572 c8 -6 11 -17 8 -26 -3 -8 -2 -18 2 -20 4 -3 8 7 7 21 -1
14 -8 28 -16 30 -12 4 -13 3 -1 -5z"/>
<path d="M470 2539 c0 -5 -4 -8 -9 -4 -5 3 -12 1 -15 -4 -4 -5 2 -8 11 -7 15
3 33 26 19 26 -3 0 -6 -5 -6 -11z"/>
<path d="M415 2531 c-3 -5 -2 -12 3 -15 5 -3 9 1 9 9 0 17 -3 19 -12 6z"/>
<path d="M323 2496 c1 -11 9 -21 17 -23 10 -3 11 -2 4 4 -6 4 -14 15 -17 23
-5 11 -6 9 -4 -4z"/>
<path d="M246 2488 c3 -4 11 -5 19 -1 21 7 19 12 -4 10 -11 0 -18 -5 -15 -9z"/>
<path d="M240 2450 c-9 -6 -10 -10 -3 -10 6 0 15 5 18 10 8 12 4 12 -15 0z"/>
<path d="M208 2428 c9 -9 9 -15 -1 -27 -10 -14 -10 -14 5 -3 17 14 14 42 -5
42 -8 0 -7 -4 1 -12z"/>
<path d="M225 2389 c-11 -16 -1 -19 13 -3 7 8 8 14 3 14 -5 0 -13 -5 -16 -11z"/>
<path d="M224 2292 c-10 -15 -7 -20 12 -29 13 -6 22 -7 19 -3 -3 5 0 10 7 12
9 3 9 6 0 12 -7 4 -12 2 -12 -4 0 -6 -4 -9 -10 -5 -5 3 -7 12 -3 20 7 21 0 19
-13 -3z"/>
<path d="M2280 2519 l0 -290 53 3 52 3 3 265 c1 146 0 275 -3 288 -5 19 -12
22 -55 22 l-50 0 0 -291z m90 1 l0 -280 -40 0 -40 0 0 280 0 280 40 0 40 0 0
-280z"/>
<path d="M2310 2736 c0 -2 7 -7 16 -10 8 -3 12 -2 9 4 -6 10 -25 14 -25 6z"/>
<path d="M2317 2669 c-18 -11 -14 -29 6 -29 8 0 8 3 -1 9 -11 7 -11 9 2 14 8
3 17 1 20 -6 2 -7 5 -4 5 6 1 19 -6 21 -32 6z"/>
<path d="M2337 2545 c-4 -8 -3 -16 1 -19 4 -3 9 4 9 15 2 23 -3 25 -10 4z"/>
<path d="M2340 2450 c-9 -6 -10 -10 -3 -10 6 0 15 5 18 10 8 12 4 12 -15 0z"/>
<path d="M2309 2403 c-13 -16 -12 -17 4 -4 9 7 17 15 17 17 0 8 -8 3 -21 -13z"/>
<path d="M2325 2389 c-11 -16 -1 -19 13 -3 7 8 8 14 3 14 -5 0 -13 -5 -16 -11z"/>
<path d="M2326 2294 c-4 -9 -5 -17 -4 -18 2 -1 12 -8 23 -16 19 -14 19 -14 4
5 -9 11 -14 26 -12 33 7 18 -4 15 -11 -4z"/>
<path d="M1451 2726 c-8 -9 -11 -26 -7 -40 5 -21 2 -25 -21 -28 -25 -3 -28 -7
-28 -38 0 -29 4 -36 25 -40 l25 -5 0 -130 c1 -105 4 -136 19 -163 26 -50 96
-74 164 -56 17 5 22 14 22 40 0 31 -2 34 -31 34 -66 0 -69 7 -69 150 l0 130
50 0 c45 0 50 3 56 25 11 44 0 55 -58 55 l-53 0 0 37 c0 37 -1 38 -41 41 -27
2 -45 -2 -53 -12z m77 -46 c-3 -28 -1 -53 3 -56 5 -3 6 2 3 10 -5 13 3 16 50
16 56 0 56 0 56 -30 0 -30 0 -30 -56 -30 l-56 0 3 -129 c4 -147 15 -171 76
-171 28 0 33 -3 33 -25 0 -50 -118 -42 -160 12 -18 23 -20 40 -20 169 l0 143
-27 3 c-22 2 -29 9 -31 31 -3 24 0 27 27 27 28 0 31 3 31 33 0 41 5 47 43 47
29 0 30 0 25 -50z"/>
<path d="M1437 2626 c-4 -11 -1 -13 10 -9 12 5 14 3 8 -7 -5 -9 -4 -11 4 -6 9
6 9 11 0 22 -14 17 -16 17 -22 0z"/>
<path d="M1505 2610 c-4 -6 3 -10 14 -10 25 0 27 6 6 13 -8 4 -17 2 -20 -3z"/>
<path d="M1500 2450 c-9 -6 -10 -10 -3 -10 6 0 15 5 18 10 8 12 4 12 -15 0z"/>
<path d="M1485 2389 c-11 -16 -1 -19 13 -3 7 8 8 14 3 14 -5 0 -13 -5 -16 -11z"/>
<path d="M1506 2275 c-3 -10 -2 -14 5 -10 5 4 15 3 22 -3 18 -14 49 -23 42
-13 -3 5 1 12 7 15 7 4 2 4 -12 1 -14 -2 -31 2 -41 11 -15 13 -17 13 -23 -1z"/>
<path d="M685 2652 c-75 -36 -125 -118 -125 -205 0 -51 40 -138 77 -167 l26
-20 -43 -38 c-78 -67 -120 -116 -148 -172 -23 -47 -27 -67 -27 -146 0 -84 2
-95 38 -167 25 -51 52 -88 80 -111 48 -39 155 -93 204 -102 27 -5 34 -12 43
-44 12 -46 101 -133 166 -161 36 -16 44 -24 38 -37 -5 -9 -10 -143 -12 -297
-3 -259 -5 -283 -24 -324 -12 -24 -21 -60 -22 -80 -1 -33 1 -36 26 -34 17 1
28 -4 31 -16 8 -32 131 -74 220 -77 66 -1 82 -5 103 -25 27 -25 47 -27 172
-16 89 8 249 60 370 121 91 45 91 46 133 31 50 -18 102 -19 132 -4 29 15 67
50 67 62 0 5 -10 6 -22 2 -93 -28 -147 -22 -172 18 -9 14 -17 67 -21 142 -9
153 -26 238 -65 320 -32 67 -119 170 -164 194 -14 8 -26 17 -26 20 0 3 16 17
36 29 34 22 36 26 32 67 -6 47 -18 66 -146 222 -87 105 -105 118 -157 114 -24
-2 -34 3 -45 24 -17 31 -57 63 -134 104 -80 42 -121 41 -180 -4 -50 -38 -64
-42 -86 -22 -12 10 -12 9 -1 -5 15 -21 2 -24 -18 -5 -11 10 -13 9 -8 -4 3 -9
-3 -23 -14 -32 -11 -10 -16 -24 -13 -34 5 -15 4 -15 -4 -3 -6 8 -8 18 -6 22
12 18 -29 6 -50 -15 -17 -17 -27 -20 -38 -13 -23 14 -47 0 -63 -38 -14 -32
-16 -33 -55 -26 -72 13 -154 86 -207 183 -65 119 14 263 162 298 28 6 57 19
65 28 8 10 31 23 49 29 56 20 98 58 127 117 50 103 18 219 -78 282 -55 37
-162 44 -223 15z m69 -4 c-3 -4 0 -8 5 -8 6 0 11 5 11 11 0 19 90 1 132 -26
90 -60 119 -190 61 -283 -53 -88 -161 -122 -249 -78 -16 8 -41 19 -56 25 -38
14 -80 90 -81 149 -2 56 9 102 24 102 7 0 9 -9 6 -21 -8 -29 7 -63 44 -101 28
-30 36 -33 85 -32 38 1 54 -2 54 -11 0 -8 11 -22 25 -33 14 -11 25 -27 25 -35
0 -8 3 -17 8 -20 4 -2 2 -3 -5 -1 -6 1 -19 -6 -29 -17 -21 -23 -5 -25 34 -5
15 7 39 19 54 26 28 13 64 80 55 103 -3 8 -20 17 -37 21 -50 9 -140 7 -140 -4
0 -5 -8 -10 -18 -10 -19 0 -42 18 -42 32 0 15 29 8 40 -9 10 -16 11 -15 6 6
-2 13 3 38 11 57 15 31 15 35 0 52 -11 12 -13 22 -6 29 12 12 -4 27 -39 37
-17 6 -24 3 -30 -15 -7 -19 -10 -20 -15 -6 -4 10 -13 17 -22 17 -8 0 -15 4
-15 10 0 5 7 7 15 4 8 -3 20 -2 27 2 7 5 24 7 37 5 14 -2 21 1 17 8 -8 12 -46
11 -66 -3 -13 -10 -13 -9 -1 7 8 10 20 16 27 13 7 -3 16 -2 18 3 3 4 12 8 20
8 8 0 13 -4 10 -9z m-76 -75 c6 -10 16 -14 26 -10 10 4 14 11 11 17 -4 6 5 10
21 10 22 0 25 -4 21 -21 -3 -12 -1 -29 6 -39 14 -24 -5 -70 -33 -77 -25 -7
-26 -38 -2 -53 14 -9 12 -10 -13 -5 -34 7 -94 65 -96 92 -1 10 0 26 1 36 1 10
-4 25 -10 32 -10 12 -8 17 11 24 35 14 47 13 57 -6z m264 -181 c11 -11 -7 -52
-23 -52 -6 0 -7 -5 -4 -11 8 -11 -22 -38 -42 -39 -7 0 -13 6 -13 13 0 7 -13
26 -30 42 -16 16 -30 37 -30 48 0 18 6 19 66 14 37 -3 71 -10 76 -15z m-202
-161 l55 -19 -51 -7 c-65 -9 -136 -61 -178 -129 -39 -62 -41 -129 -6 -201 30
-61 135 -168 184 -186 20 -7 36 -16 36 -21 0 -4 7 -4 17 -1 12 5 14 3 8 -8 -8
-12 -6 -12 8 0 9 7 17 10 17 5 0 -5 5 -1 11 9 6 10 22 17 39 17 16 0 32 5 35
10 3 6 17 10 31 10 41 0 84 27 84 54 0 33 25 53 45 36 13 -11 14 -10 9 4 -5
13 1 16 27 17 74 3 116 -4 154 -26 48 -28 104 -86 89 -92 -22 -8 -49 -31 -43
-37 3 -4 36 8 73 25 79 37 145 48 173 28 17 -12 100 -108 152 -174 11 -15
-106 92 -139 126 -17 17 -57 39 -73 39 -31 0 -137 -51 -137 -66 0 -8 6 -11 17
-7 14 6 15 1 9 -38 -10 -65 -40 -120 -97 -177 -101 -102 -208 -129 -312 -78
-59 28 -147 113 -125 120 80 26 90 27 118 17 24 -8 30 -7 30 5 0 7 -7 14 -15
14 -9 0 -24 13 -33 30 -20 36 -37 39 -28 6 6 -23 5 -23 -46 -14 -184 34 -317
108 -367 206 -80 157 -57 306 63 421 60 56 103 83 93 58 -4 -11 -2 -14 9 -10
11 4 12 9 5 16 -13 13 -15 37 -3 37 4 0 32 -9 62 -19z m475 -361 c-10 -11 -30
-20 -44 -20 l-26 0 30 20 c41 27 64 27 40 0z m106 -15 c47 -24 129 -90 129
-104 0 -3 -15 -11 -34 -17 -32 -10 -36 -8 -74 32 -23 23 -59 50 -82 62 l-40
20 22 15 c29 20 21 21 79 -8z m-331 -94 c0 -9 -23 -21 -41 -21 -4 0 -6 7 -3
15 7 16 44 21 44 6z m-82 -31 c3 -7 0 -10 -7 -6 -6 4 -11 2 -11 -3 0 -6 -7
-11 -15 -11 -13 0 -14 4 -5 21 12 22 31 21 38 -1z m673 -102 c114 -95 196
-180 203 -210 6 -26 -2 -34 -101 -114 -147 -116 -202 -143 -285 -135 -9 0 -29
21 -44 46 -14 25 -36 53 -47 63 -12 9 -27 31 -33 49 -11 30 -10 34 37 82 62
64 90 120 96 192 5 55 7 58 42 72 20 8 41 15 47 16 6 1 44 -27 85 -61z m-722
-139 c-14 -8 -29 -3 -29 11 0 4 9 6 21 3 15 -4 17 -8 8 -14z m391 -179 c0 -22
7 -33 28 -44 15 -8 40 -37 55 -64 21 -39 35 -52 58 -57 73 -16 146 14 283 118
l48 37 47 -33 c70 -50 136 -144 164 -235 25 -79 35 -153 39 -301 3 -77 5 -87
30 -112 29 -29 80 -43 125 -35 24 5 23 4 -5 -6 -26 -9 -45 -7 -96 6 l-63 18
-72 -36 c-139 -70 -275 -117 -378 -129 l-42 -5 33 33 c35 35 62 112 51 146 -5
13 1 26 17 38 20 17 21 21 9 44 -7 14 -10 30 -6 36 10 16 -13 41 -39 42 -21 0
-21 1 2 11 20 10 26 7 51 -23 23 -27 27 -37 18 -48 -10 -12 -9 -13 9 -3 23 12
35 6 52 -28 l13 -25 -5 25 -5 25 19 -25 c11 -14 20 -20 20 -15 1 6 8 -2 16
-18 8 -15 12 -32 9 -37 -9 -15 -24 -3 -20 18 1 9 0 11 -2 4 -3 -6 -8 -12 -13
-12 -5 0 -7 -7 -3 -15 3 -9 15 -15 27 -13 11 2 21 -1 21 -7 0 -5 7 -21 14 -34
9 -17 15 -20 21 -11 4 6 11 12 16 12 5 0 8 5 6 11 -2 6 4 5 12 -3 12 -9 16 -9
16 -1 0 7 5 9 10 6 6 -3 10 -2 10 4 0 6 6 8 14 5 8 -3 19 3 26 16 6 11 15 18
20 15 5 -3 11 -1 14 4 4 5 17 8 31 7 25 -3 25 4 -3 37 -13 14 -13 22 -3 45 7
15 9 24 5 20 -9 -10 -35 11 -28 23 3 5 1 9 -4 9 -18 0 -19 -12 -5 -41 12 -25
13 -32 1 -46 -8 -10 -8 -14 -1 -10 19 12 24 -8 7 -29 -15 -18 -15 -18 -10 -1
4 12 2 17 -6 14 -7 -2 -12 -10 -10 -16 1 -7 -2 -10 -8 -6 -6 4 -4 15 6 31 9
13 12 24 8 24 -5 0 -2 5 6 10 12 8 11 10 -7 10 -12 0 -25 -4 -28 -10 -3 -5 -1
-10 4 -10 6 0 11 -5 11 -11 0 -6 -6 -9 -14 -6 -10 4 -13 -2 -12 -21 1 -15 5
-32 9 -39 5 -8 1 -11 -12 -10 -15 1 -17 6 -11 22 5 15 0 30 -22 58 -16 20 -25
37 -18 37 6 0 9 3 6 8 -2 4 2 16 10 27 8 11 14 13 14 6 0 -7 6 -11 14 -8 8 3
17 -1 20 -10 5 -12 1 -14 -13 -10 -11 3 -25 -1 -31 -8 -9 -10 -6 -16 10 -25
20 -11 21 -10 9 12 -11 21 -11 22 5 8 16 -13 20 -12 32 5 12 17 12 20 -1 28
-14 7 -14 10 0 24 14 14 14 16 -2 28 -22 16 -51 -1 -33 -19 14 -14 13 -29 -2
-19 -14 8 -19 10 -45 12 -15 1 -16 3 -3 10 8 6 18 7 22 5 4 -3 5 3 1 12 -4 11
-2 15 4 11 6 -4 16 0 23 8 16 19 44 20 37 1 -3 -8 1 -17 8 -20 9 -3 12 -13 9
-23 -4 -12 -3 -14 3 -6 11 15 38 0 29 -16 -4 -6 0 -11 8 -11 25 0 19 24 -11
42 -21 13 -28 25 -29 53 -1 33 1 35 15 20 13 -12 13 -19 3 -35 -10 -16 -9 -18
3 -14 8 4 15 1 15 -5 0 -6 4 -11 8 -11 5 0 9 7 9 15 0 8 -5 11 -11 8 -6 -4 -5
0 2 9 10 12 11 22 3 36 -6 11 -8 29 -6 41 2 12 0 19 -6 16 -13 -9 -11 9 3 23
7 7 9 12 6 12 -4 0 -14 -7 -22 -16 -23 -22 -42 -7 -20 17 10 12 13 19 5 19 -6
0 -14 -7 -17 -15 -4 -8 -10 -12 -16 -9 -5 3 -4 11 3 20 8 10 9 18 0 27 -6 8
-7 17 -3 22 4 4 -3 3 -15 -4 -14 -7 -24 -8 -28 -1 -3 6 1 13 9 16 9 3 13 10
10 15 -3 5 2 9 11 9 10 0 13 -5 9 -12 -4 -7 -4 -10 1 -6 8 8 35 -15 35 -30 0
-5 7 -15 15 -22 13 -11 14 -9 1 15 -8 16 -12 33 -9 38 3 6 1 7 -5 3 -6 -4 -17
2 -23 13 -7 10 -19 17 -27 13 -11 -4 -10 2 4 23 17 27 17 28 -1 41 -10 8 -15
14 -10 14 6 0 -3 11 -18 26 -15 14 -31 22 -36 19 -5 -3 -12 -1 -16 5 -3 5 0
10 7 10 7 0 3 7 -9 15 -16 11 -27 12 -45 5 -23 -10 -22 -10 3 -5 32 6 43 -3
26 -23 -8 -11 -9 -14 0 -9 7 4 16 0 22 -10 6 -11 11 -13 11 -5 0 7 5 10 11 6
15 -9 -9 -24 -28 -17 -24 9 -13 -12 13 -24 21 -10 25 -10 20 2 -6 16 9 29 24
20 12 -8 -10 -45 -27 -45 -6 0 -15 -4 -18 -10 -4 -6 1 -7 12 -3 16 6 17 5 3
-13 -9 -12 -9 -15 -1 -7 19 17 43 5 32 -15 -5 -10 -11 -21 -13 -27 -1 -5 -7
-9 -12 -7 -5 2 -4 -4 3 -12 7 -8 10 -20 7 -25 -4 -5 -2 -12 3 -16 5 -3 14 3
20 12 7 14 13 15 22 6 7 -7 8 -17 3 -25 -5 -7 -9 -17 -9 -23 -1 -5 -6 -9 -13
-7 -7 1 -12 -2 -12 -8 0 -5 5 -10 11 -10 5 0 7 -5 4 -10 -4 -6 -11 -8 -16 -5
-5 4 -9 1 -9 -4 0 -6 16 -21 35 -33 19 -13 35 -26 35 -31 0 -4 -11 0 -24 8
-23 15 -24 15 -30 -10 -4 -14 -11 -23 -17 -19 -6 3 -16 -2 -23 -11 -12 -17
-13 -17 -11 1 0 11 5 26 10 33 5 10 4 12 -3 7 -7 -4 -12 -3 -12 3 0 19 19 21
29 4 6 -10 11 -16 11 -13 7 30 8 41 3 36 -10 -9 -44 14 -37 26 4 7 9 6 15 -3
5 -8 9 -9 9 -3 0 6 -3 14 -6 17 -9 8 -44 -11 -44 -24 0 -6 5 -7 10 -4 13 8 12
5 -1 -34 -6 -17 -15 -31 -21 -31 -5 0 -6 5 -3 10 3 6 1 10 -5 10 -6 0 -10 -7
-8 -16 2 -10 -2 -19 -9 -21 -7 -3 -10 4 -6 19 4 22 4 22 -9 -2 -8 -14 -10 -28
-5 -31 5 -3 1 -9 -8 -12 -9 -4 -13 -3 -10 2 11 19 -15 21 -41 4 l-27 -17 28
-9 c18 -6 30 -6 38 2 16 16 37 14 31 -4 -4 -8 -11 -12 -17 -8 -5 3 -7 1 -3 -5
3 -6 -3 -14 -15 -17 -15 -5 -25 -2 -31 9 -5 9 -13 14 -19 11 -5 -4 -20 6 -35
22 -23 25 -24 28 -7 34 10 4 28 8 41 8 12 1 22 6 22 11 0 6 -10 10 -22 11
l-23 0 23 16 c12 8 22 19 22 24 0 5 -19 -4 -42 -21 -22 -16 -51 -30 -64 -30
-13 0 -58 -11 -100 -25 -90 -30 -84 -29 -84 -10 0 8 -5 15 -11 15 -5 0 -7 5
-4 10 3 6 4 10 1 10 -3 0 -10 -10 -17 -21 -8 -15 -8 -19 0 -15 20 13 11 -18
-14 -49 -23 -28 -30 -25 -26 11 3 22 -23 33 -43 18 -15 -11 -17 -16 -7 -28 7
-8 10 -20 6 -26 -9 -14 -28 -1 -21 16 3 7 1 16 -4 19 -6 3 -5 15 1 29 12 25
59 30 67 7 3 -8 8 -7 17 6 9 13 10 22 3 30 -7 9 -7 13 0 13 6 0 9 8 6 18 -5
16 -5 16 9 -1 14 -17 47 -14 47 5 0 5 4 6 10 3 6 -4 7 1 3 11 -5 13 -3 15 7 9
9 -6 11 -4 5 5 -6 10 -11 10 -20 -3 -7 -9 -15 -14 -18 -10 -4 3 -7 -2 -7 -12
0 -14 -3 -15 -15 -5 -16 13 -21 35 -6 26 4 -3 17 1 27 9 18 14 18 15 -3 21
-13 3 -20 10 -17 15 10 16 30 9 62 -22 31 -30 32 -33 16 -50 -9 -10 -20 -16
-24 -14 -4 3 -14 -3 -21 -12 -8 -9 -9 -14 -2 -10 6 4 13 2 15 -4 2 -7 13 -6
33 2 17 7 37 11 45 10 13 -2 13 -1 0 9 -12 8 -8 10 17 6 25 -3 30 -1 26 10 -3
9 0 14 8 12 7 -2 15 5 17 15 2 9 -2 17 -8 17 -7 0 -10 -7 -6 -15 4 -12 2 -13
-13 -5 -16 8 -18 7 -14 -13 4 -19 3 -20 -7 -4 -6 9 -16 17 -23 17 -7 0 -6 -4
3 -10 14 -9 13 -10 -17 -10 -5 0 -8 3 -8 8 -1 4 -6 17 -13 30 -8 14 -9 22 -2
22 5 0 10 5 10 10 0 6 -3 9 -7 9 -29 -5 -34 2 -19 23 21 29 21 48 0 22 -14
-18 -15 -18 -4 4 13 27 37 24 32 -3 -3 -16 -2 -17 13 -5 9 7 12 16 8 19 -10 7
-13 52 -4 46 4 -2 7 5 8 15 2 26 -14 35 -21 12 -6 -18 -36 -27 -36 -10 0 5 -8
4 -19 -1 -14 -8 -23 -5 -39 9 -21 19 -21 19 -27 -1 -4 -11 -12 -18 -18 -16
-20 7 -47 -12 -40 -29 5 -14 8 -13 17 5 11 20 13 20 31 5 11 -8 15 -13 9 -10
-6 3 -21 -5 -33 -18 -19 -20 -20 -24 -6 -36 8 -7 12 -17 8 -24 -4 -8 -3 -8 6
0 7 7 21 9 32 7 19 -5 19 -7 3 -24 -12 -14 -21 -16 -30 -8 -8 7 -14 7 -19 -1
-3 -5 0 -10 8 -10 16 0 32 -29 22 -39 -11 -10 -43 42 -37 58 5 14 3 14 -11 2
-17 -14 -24 -47 -8 -36 5 3 19 -8 30 -24 14 -19 18 -32 11 -36 -6 -4 -8 -12
-4 -18 3 -7 -2 -3 -10 8 -9 11 -14 25 -12 32 3 7 0 15 -6 19 -7 5 -9 -2 -6
-19 6 -29 -11 -42 -27 -20 -8 11 -12 10 -22 -6 -8 -13 -9 -22 -3 -26 6 -3 10
1 10 10 0 9 4 13 10 10 17 -11 -17 -65 -37 -58 -15 6 -15 7 1 13 17 6 17 7 0
20 -11 10 -15 10 -10 2 4 -7 0 -15 -11 -19 -14 -6 -10 -10 22 -25 27 -11 33
-18 20 -18 -19 -1 -19 -1 -2 -14 9 -7 17 -18 17 -25 0 -17 17 -13 24 6 6 15 8
15 16 3 8 -12 10 -11 10 7 0 12 -4 24 -10 28 -5 3 -7 12 -4 20 4 8 10 13 14
10 9 -6 11 -21 10 -67 -4 -111 -4 -175 0 -188 4 -11 -4 -16 -32 -18 -37 -3
-38 -3 -38 32 0 44 -9 66 -26 66 -8 0 -14 6 -14 13 0 9 -3 8 -9 -2 -7 -10 -11
-9 -22 5 -17 23 -50 28 -42 7 5 -12 1 -14 -18 -8 -33 10 -34 11 -19 42 13 30
28 223 20 265 -3 14 -20 43 -39 64 l-33 39 6 120 c9 164 7 160 66 162 28 1 70
12 97 26 63 32 63 32 63 -3z m620 -209 c-1 -19 -16 -29 -30 -20 -11 8 -12 12
-2 16 6 2 10 9 7 14 -4 5 1 6 9 3 9 -3 16 -9 16 -13z m-520 -66 c4 3 6 -4 3
-15 -3 -12 0 -20 8 -20 7 0 9 -3 6 -7 -12 -11 -46 28 -39 45 4 10 7 12 10 4 2
-7 7 -10 12 -7z m34 -20 c-4 -8 -11 -12 -16 -9 -6 4 -5 10 3 15 19 12 19 11
13 -6z m54 -3 c2 -7 -5 -9 -17 -7 -14 3 -21 -2 -22 -13 -4 -55 -3 -68 6 -82 5
-9 0 -7 -13 4 -15 13 -21 27 -17 40 3 12 2 15 -1 8 -5 -10 -9 -9 -18 4 -12 15
-13 15 -13 0 0 -9 4 -16 9 -16 4 0 8 -5 8 -11 0 -8 -5 -8 -15 1 -8 7 -22 10
-30 6 -9 -3 -15 0 -15 10 0 9 -5 12 -12 8 -7 -4 -4 3 7 15 18 21 20 21 26 4 4
-10 8 -12 8 -5 1 9 8 11 20 7 13 -4 25 2 38 18 18 25 44 29 51 9z m-368 -112
c0 -5 -9 -7 -19 -5 -14 2 -18 -1 -15 -10 3 -8 12 -11 20 -8 17 6 20 -32 2 -43
-7 -5 -8 -3 -3 6 6 9 4 11 -5 5 -10 -6 -10 -10 2 -19 17 -13 15 -115 -4 -177
-10 -36 -11 -36 -29 -18 -16 16 -17 23 -8 41 7 12 11 73 10 157 l-1 136 25
-28 c14 -15 25 -32 25 -37z m843 -4 c3 3 8 0 13 -7 4 -8 3 -10 -4 -5 -7 4 -12
2 -12 -3 0 -6 4 -11 10 -11 5 0 15 -10 21 -22 l12 -23 -25 23 c-14 13 -29 22
-34 21 -18 -4 -44 13 -37 25 4 6 8 14 9 19 1 4 2 10 3 15 1 4 10 -3 20 -15 10
-12 21 -20 24 -17z m-563 -19 c0 -7 -4 -6 -10 3 -8 12 -10 12 -10 1 0 -8 -3
-12 -6 -8 -9 9 6 28 17 22 5 -4 9 -12 9 -18z m94 -59 c-3 -4 -12 -8 -20 -8 -8
0 -13 4 -10 8 3 5 12 9 20 9 8 0 13 -4 10 -9z m342 -33 c-3 -16 1 -28 11 -34
14 -7 14 -10 -4 -20 -18 -9 -20 -8 -16 9 3 12 0 20 -6 20 -7 0 -9 5 -5 12 4 7
3 8 -4 4 -7 -4 -12 -1 -12 8 0 8 8 17 18 19 9 3 18 5 20 6 1 0 0 -10 -2 -24z
m-101 -33 c-8 -8 -25 10 -19 20 4 6 9 5 15 -3 4 -7 6 -15 4 -17z m190 18 c3
-5 1 -10 -4 -10 -6 0 -11 5 -11 10 0 6 2 10 4 10 3 0 8 -4 11 -10z m-375 -4
c0 -11 -19 -15 -25 -6 -3 5 1 10 9 10 9 0 16 -2 16 -4z m265 -39 c0 -7 8 -11
18 -11 9 1 14 -2 11 -7 -8 -14 6 -50 18 -43 6 4 6 -1 -1 -14 -15 -28 -14 -32
7 -32 13 0 14 2 3 9 -8 5 -9 11 -3 15 5 3 15 -1 22 -9 9 -10 9 -15 1 -15 -6 0
-10 -3 -10 -7 5 -30 -2 -44 -20 -38 -12 4 -21 0 -25 -11 -5 -13 -9 -14 -21 -4
-12 10 -13 16 -4 27 7 8 17 12 23 10 6 -2 20 -1 31 4 20 8 20 8 0 9 -11 2 -23
2 -27 1 -3 0 -5 15 -3 34 3 31 1 33 -16 22 -10 -6 -15 -14 -11 -17 12 -8 12
-50 1 -50 -9 0 -11 11 -11 45 0 30 2 36 13 30 16 -11 6 27 -13 49 -10 10 -15
23 -12 28 7 12 29 -7 29 -25z m-298 0 c31 -14 63 -84 63 -136 0 -120 -115
-195 -188 -122 -60 61 -55 188 10 248 35 32 64 35 115 10z m83 9 c0 -20 -19
-31 -32 -18 -6 6 -7 15 -4 21 10 16 36 13 36 -3z m190 -15 c0 -6 -5 -13 -12
-17 -7 -5 -8 -3 -3 6 5 9 4 11 -4 6 -16 -10 -3 -26 16 -19 11 4 14 2 11 -8 -3
-8 -14 -15 -26 -15 -12 -1 -19 2 -17 7 3 4 0 11 -5 14 -7 5 -5 12 7 21 21 16
33 18 33 5z m-175 -41 c3 -5 1 -10 -4 -10 -6 0 -11 5 -11 10 0 6 2 10 4 10 3
0 8 -4 11 -10z m-552 -74 c7 -17 -1 -26 -24 -26 -12 0 -16 6 -12 20 6 23 28
27 36 6z m872 4 c3 -5 1 -10 -4 -10 -6 0 -11 5 -11 10 0 6 2 10 4 10 3 0 8 -4
11 -10z m-804 -37 c9 -52 6 -59 -25 -47 -16 6 -22 35 -9 47 9 9 33 9 34 0z
m59 -34 c0 -52 -24 -48 -28 4 -2 28 1 37 12 37 12 0 16 -11 16 -41z m60 -21
c0 -23 -4 -29 -17 -26 -17 3 -26 47 -15 71 8 17 32 -17 32 -45z"/>
<path d="M646 2345 c4 -8 10 -15 15 -15 4 0 6 7 3 15 -4 8 -10 15 -15 15 -4 0
-6 -7 -3 -15z"/>
<path d="M908 2373 c7 -3 16 -2 19 1 4 3 -2 6 -13 5 -11 0 -14 -3 -6 -6z"/>
<path d="M856 2348 c22 -32 30 -34 38 -12 4 10 2 14 -6 11 -7 -2 -22 3 -32 12
-19 16 -19 16 0 -11z"/>
<path d="M506 2042 c-3 -6 -1 -14 5 -17 14 -9 20 -2 10 14 -6 8 -11 9 -15 3z"/>
<path d="M495 1970 c-20 -9 -20 -9 0 -10 19 0 18 -2 -5 -21 -25 -21 -25 -21
-1 -7 13 8 25 22 27 31 1 9 2 17 1 16 -1 0 -11 -4 -22 -9z"/>
<path d="M483 1905 c-8 -21 2 -29 24 -20 17 8 17 8 0 12 -9 3 -15 9 -12 14 4
5 4 9 0 9 -3 0 -8 -7 -12 -15z"/>
<path d="M513 1851 c0 -10 6 -17 13 -14 7 2 15 0 19 -6 3 -6 2 -11 -4 -11 -6
0 -15 -10 -22 -21 -9 -17 -8 -20 3 -14 7 5 20 15 28 24 14 13 13 17 -8 38 -28
28 -31 28 -29 4z"/>
<path d="M486 1827 c3 -10 9 -15 12 -12 3 3 0 11 -7 18 -10 9 -11 8 -5 -6z"/>
<path d="M510 1759 c0 -5 5 -7 10 -4 6 3 10 8 10 11 0 2 -4 4 -10 4 -5 0 -10
-5 -10 -11z"/>
<path d="M542 1758 c-9 -9 -9 -15 -1 -25 13 -15 33 -18 24 -4 -3 5 2 11 10 13
13 2 12 5 -3 15 -14 8 -22 9 -30 1z"/>
<path d="M592 1725 c4 -5 4 -13 -2 -19 -5 -7 -5 -17 0 -26 9 -13 10 -13 11 0
1 8 1 18 0 23 -1 10 7 9 29 -3 16 -9 18 -8 14 5 -4 9 -9 14 -12 11 -2 -3 -14
0 -26 6 -11 6 -18 7 -14 3z"/>
<path d="M1210 1692 c0 -8 -5 -10 -12 -6 -8 5 -9 2 -5 -10 4 -10 7 -23 7 -29
0 -6 7 -4 16 5 12 12 14 20 5 34 -6 11 -11 14 -11 6z"/>
<path d="M653 1682 c-13 -2 -23 -7 -23 -12 0 -4 10 -6 22 -2 12 3 19 1 15 -4
-3 -6 4 -16 16 -23 16 -10 19 -10 10 -1 -14 15 -5 43 11 33 6 -3 7 -2 3 2 -9
10 -24 12 -54 7z"/>
<path d="M959 1678 c7 -10 10 -18 6 -18 -4 0 -2 -6 4 -13 12 -15 5 -27 -16
-27 -8 0 -11 5 -7 12 5 7 3 8 -5 4 -7 -5 -10 -10 -7 -13 3 -3 -1 -12 -9 -20
-8 -8 -15 -19 -15 -25 0 -6 8 -1 19 10 25 30 39 28 35 -4 -2 -25 -1 -25 13
-11 13 12 14 19 5 30 -14 17 -6 27 16 20 15 -4 15 -3 2 7 -13 10 -11 11 7 7
15 -3 20 -1 16 9 -4 10 -10 11 -24 3 -10 -5 -20 -7 -20 -4 -1 3 -2 9 -3 15 0
5 -8 15 -16 22 -12 11 -12 11 -1 -4z"/>
<path d="M610 1659 c0 -13 36 -43 43 -37 2 2 15 -5 30 -15 19 -12 27 -14 27
-5 0 9 4 9 11 -2 9 -12 10 -10 6 8 -5 23 -5 23 13 7 18 -17 20 -17 26 -1 4 10
1 23 -6 29 -10 10 -11 7 -5 -13 7 -24 7 -24 -9 -5 -16 20 -16 20 -31 1 -11
-15 -17 -17 -29 -7 -7 6 -18 10 -24 9 -5 -2 -19 8 -31 21 -13 15 -21 19 -21
10z"/>
<path d="M1119 1647 c-32 -17 -34 -61 -2 -65 21 -3 63 28 63 48 0 19 -35 29
-61 17z m34 -22 c4 -8 1 -17 -5 -21 -7 -4 -8 -3 -4 5 6 9 0 10 -21 6 -27 -6
-27 -6 -9 9 25 20 32 20 39 1z"/>
<path d="M840 1645 c0 -6 5 -16 12 -23 7 -7 8 -12 2 -12 -5 0 -15 5 -20 10 -7
7 -11 6 -11 -4 0 -8 4 -13 8 -11 4 3 6 -6 5 -20 -1 -22 -16 -38 -16 -17 0 5
-7 9 -16 9 -14 0 -14 -2 2 -14 22 -16 40 -12 36 9 -1 8 7 23 18 33 17 15 22
16 37 4 11 -9 14 -10 9 -1 -4 7 -2 12 6 12 11 0 10 2 0 9 -8 4 -23 8 -35 7
-12 -1 -25 3 -29 9 -5 7 -8 7 -8 0z"/>
<path d="M789 1635 c-1 -3 -2 -9 -3 -14 0 -5 -4 -13 -8 -17 -14 -14 -8 -27 6
-15 8 7 14 21 13 32 -1 18 -5 25 -8 14z"/>
<path d="M1025 1591 c-6 -11 13 -26 22 -17 4 3 1 6 -6 6 -7 0 -9 5 -6 10 3 6
4 10 1 10 -3 0 -7 -4 -11 -9z"/>
<path d="M865 1579 c-10 -15 1 -23 20 -15 9 3 13 10 10 16 -8 13 -22 13 -30
-1z"/>
<path d="M994 1568 c-4 -7 -4 -10 1 -6 4 4 15 2 24 -5 14 -11 14 -10 2 6 -16
20 -18 21 -27 5z"/>
<path d="M1044 1537 c2 -20 0 -25 -7 -18 -17 17 -23 13 -21 -16 1 -16 -4 -35
-10 -43 -10 -13 -9 -13 6 -1 16 12 19 10 28 -15 8 -19 8 -30 0 -38 -8 -8 -12
-4 -17 12 -4 17 -11 22 -24 19 -13 -4 -16 -1 -11 12 5 14 4 14 -12 2 -28 -23
-40 -52 -25 -62 15 -9 29 -3 29 14 0 8 -3 8 -9 -2 -5 -7 -11 -9 -14 -4 -3 5
-2 14 2 21 5 9 13 9 34 -1 15 -6 27 -16 27 -20 0 -5 -5 -5 -11 -1 -7 4 -10 1
-7 -6 2 -8 10 -16 18 -18 7 -3 10 0 6 7 -4 6 -2 12 3 12 10 1 22 4 35 8 3 0
-2 17 -10 36 -17 41 -17 46 -3 43 6 -2 14 4 16 12 3 9 1 11 -4 5 -4 -5 -17
-11 -28 -13 -16 -3 -14 2 10 22 17 14 26 26 20 26 -5 0 -3 5 5 11 13 9 13 10
-2 6 -9 -3 -19 -1 -22 6 -4 7 -4 -1 -2 -16z"/>
<path d="M1145 1529 c-10 -14 -1 -21 19 -13 9 3 13 10 10 15 -7 12 -21 11 -29
-2z"/>
<path d="M1090 1518 c0 -10 5 -18 11 -18 5 0 7 -5 3 -12 -4 -6 -3 -8 4 -4 6 3
13 2 17 -4 3 -5 12 -10 18 -10 7 0 4 6 -5 14 -10 7 -14 17 -10 21 4 5 2 5 -5
1 -6 -3 -16 2 -22 11 -10 17 -10 17 -11 1z"/>
<path d="M1250 1526 c0 -2 7 -7 16 -10 8 -3 12 -2 9 4 -6 10 -25 14 -25 6z"/>
<path d="M1256 1496 c3 -9 9 -16 13 -16 12 1 45 30 34 30 -7 0 -15 -5 -18 -10
-5 -8 -11 -7 -21 1 -12 10 -13 9 -8 -5z"/>
<path d="M1167 1494 c-4 -4 5 -23 20 -42 19 -26 22 -34 10 -29 -11 4 -17 1
-17 -8 0 -8 5 -15 11 -15 5 0 8 -4 4 -9 -8 -14 9 -21 25 -10 9 5 10 9 3 9 -6
0 -10 8 -8 18 1 9 8 16 15 14 6 -1 8 2 4 9 -5 9 -1 10 14 7 13 -4 20 -2 19 6
-1 6 5 10 13 8 12 -3 13 -1 2 10 -8 8 -15 9 -20 3 -4 -6 -16 -15 -27 -21 -22
-12 -37 -3 -43 26 -5 20 -17 32 -25 24z"/>
<path d="M1230 1488 c0 -9 -6 -19 -12 -21 -7 -3 -8 -6 -3 -6 6 0 17 4 25 9 12
7 12 12 2 22 -9 9 -12 9 -12 -4z"/>
<path d="M900 1454 c0 -8 6 -11 17 -7 11 4 14 3 9 -5 -4 -7 -3 -12 2 -12 6 0
13 7 16 16 9 24 7 31 -4 14 -5 -8 -10 -10 -10 -4 0 6 -7 11 -15 11 -8 0 -15
-6 -15 -13z"/>
<path d="M1078 1458 c-10 -7 -10 -11 3 -21 9 -6 14 -17 12 -22 -2 -6 4 -20 12
-30 16 -19 16 -19 6 2 -14 29 -14 28 10 30 17 2 18 -1 9 -13 -10 -11 -9 -14 5
-14 13 0 16 6 12 21 -3 12 0 22 9 26 17 6 19 36 2 31 -7 -3 -14 -10 -14 -16
-3 -23 -4 -24 -19 -12 -8 7 -13 16 -10 19 6 10 -21 10 -37 -1z m42 -29 c0 -5
-9 -4 -19 3 -11 7 -17 16 -14 20 5 10 33 -10 33 -23z"/>
<path d="M915 1410 c-3 -5 -1 -10 4 -10 6 0 11 5 11 10 0 6 -2 10 -4 10 -3 0
-8 -4 -11 -10z"/>
<path d="M1080 1379 c0 -5 -4 -7 -10 -4 -5 3 -10 -1 -10 -10 0 -10 -5 -13 -12
-9 -9 5 -9 2 1 -9 15 -19 26 -23 15 -5 -5 7 -2 9 9 5 12 -4 14 -2 10 10 -4 11
-2 14 5 9 8 -5 10 -2 6 8 -7 18 -14 21 -14 5z"/>
<path d="M1160 1372 c0 -5 7 -9 15 -9 8 0 12 4 9 9 -3 4 -9 8 -15 8 -5 0 -9
-4 -9 -8z"/>
<path d="M1130 1355 c0 -8 5 -15 10 -15 6 0 10 7 10 15 0 8 -4 15 -10 15 -5 0
-10 -7 -10 -15z"/>
<path d="M1273 1843 c9 -2 17 -9 17 -14 0 -5 8 -9 17 -9 15 0 14 2 -3 15 -10
8 -26 14 -34 14 -11 -1 -10 -3 3 -6z"/>
<path d="M1502 1641 c7 -12 16 -21 21 -21 4 0 18 -11 31 -25 13 -13 26 -22 29
-19 7 7 -4 18 -56 58 -32 23 -36 25 -25 7z"/>
<path d="M1452 1630 c16 -31 27 -39 47 -35 9 1 22 -4 29 -11 11 -12 10 -15 -3
-20 -12 -5 -13 -9 -4 -20 6 -8 16 -14 21 -14 6 0 4 8 -3 17 -13 15 -11 16 10
10 l24 -6 -27 27 c-14 15 -35 28 -46 29 -12 1 -30 12 -41 25 l-20 23 13 -25z"/>
<path d="M1430 1621 c0 -6 4 -13 10 -16 6 -3 7 1 4 9 -7 18 -14 21 -14 7z"/>
<path d="M1438 1583 c6 -2 12 -13 12 -23 0 -10 7 -21 16 -24 14 -5 15 -4 4 9
-8 9 -8 15 -2 15 6 0 32 -21 57 -47 26 -27 44 -42 40 -35 -3 6 -1 12 4 12 6 0
11 5 11 11 0 5 -4 7 -10 4 -5 -3 -10 -2 -10 4 0 6 -6 8 -14 5 -7 -3 -23 7 -35
22 -20 25 -65 55 -80 53 -3 0 0 -3 7 -6z"/>
<path d="M1620 1542 c0 -5 7 -9 15 -9 8 0 12 4 9 9 -3 4 -9 8 -15 8 -5 0 -9
-4 -9 -8z"/>
<path d="M1425 1520 c4 -11 2 -20 -4 -20 -6 0 -11 -5 -11 -12 0 -7 7 -5 18 5
16 15 18 14 31 -14 7 -17 16 -28 19 -24 3 3 0 11 -6 17 -19 19 -14 30 9 18 11
-6 27 -10 36 -8 14 3 14 5 -2 18 -11 9 -16 10 -11 3 4 -7 5 -13 2 -13 -12 0
-56 24 -56 31 0 4 -7 10 -16 13 -12 4 -14 1 -9 -14z"/>
<path d="M1642 1498 c-19 -19 -14 -33 6 -15 10 10 22 14 27 10 4 -5 5 -2 1 5
-9 15 -19 15 -34 0z"/>
<path d="M1426 1471 c-3 -5 0 -11 6 -14 7 -2 10 -8 6 -12 -4 -4 -14 -3 -22 4
-11 9 -15 8 -20 -4 -3 -9 -10 -13 -16 -10 -5 3 -10 1 -10 -5 0 -8 7 -9 18 -5
9 4 27 8 40 10 30 3 33 7 17 28 -7 10 -16 14 -19 8z"/>
<path d="M1663 1458 c1 -26 17 -41 17 -16 0 6 9 3 20 -7 18 -17 20 -17 14 -2
-6 16 -11 18 -31 16 -4 0 -10 8 -14 18 -6 13 -7 11 -6 -9z"/>
<path d="M1496 1453 c-3 -11 -18 -26 -31 -33 -14 -7 -23 -15 -21 -17 2 -2 19
4 37 14 19 10 36 19 37 20 2 1 -1 9 -6 19 -9 16 -10 16 -16 -3z"/>
<path d="M1595 1460 c3 -5 8 -10 11 -10 2 0 4 5 4 10 0 6 -5 10 -11 10 -5 0
-7 -4 -4 -10z"/>
<path d="M1620 1440 c0 -5 7 -7 15 -4 8 4 15 8 15 10 0 2 -7 4 -15 4 -8 0 -15
-4 -15 -10z"/>
<path d="M1685 1410 c3 -5 8 -10 11 -10 2 0 4 5 4 10 0 6 -5 10 -11 10 -5 0
-7 -4 -4 -10z"/>
<path d="M1660 1390 c0 -5 5 -10 11 -10 5 0 7 5 4 10 -3 6 -8 10 -11 10 -2 0
-4 -4 -4 -10z"/>
<path d="M1408 1378 c5 -5 16 -8 23 -6 8 3 3 7 -10 11 -17 4 -21 3 -13 -5z"/>
<path d="M1164 1275 c1 -8 8 -21 14 -27 9 -9 12 -8 12 4 0 8 -6 21 -14 27 -11
10 -14 9 -12 -4z"/>
<path d="M1190 1281 c0 -6 5 -13 10 -16 6 -3 10 1 10 9 0 9 -4 16 -10 16 -5 0
-10 -4 -10 -9z"/>
<path d="M1070 1258 c0 -21 10 -23 34 -5 16 12 16 14 2 14 -9 0 -16 -5 -16
-11 0 -6 -5 -4 -10 4 -8 13 -10 12 -10 -2z"/>
<path d="M1120 1245 c-7 -13 -18 -23 -24 -22 -6 1 -11 -5 -11 -13 0 -8 6 -16
13 -16 25 -3 27 -4 13 -13 -8 -5 -10 -14 -5 -22 4 -7 8 -23 9 -36 1 -30 26
-55 44 -44 11 7 7 12 -15 25 -16 8 -22 15 -14 16 13 0 13 1 0 11 -13 9 -13 10
0 6 8 -2 14 -9 13 -15 -1 -5 5 -9 15 -7 9 1 29 -4 43 -11 15 -7 30 -10 34 -6
5 4 5 2 2 -4 -3 -6 0 -11 8 -11 11 0 12 4 4 13 -7 8 -7 14 0 18 6 4 17 -7 26
-24 9 -17 11 -30 5 -30 -5 0 -10 4 -10 8 0 5 -7 9 -15 9 -11 0 -13 -6 -9 -20
5 -17 4 -18 -9 -6 -8 8 -14 18 -14 23 1 5 -3 10 -9 13 -6 2 -11 -3 -11 -12 0
-8 4 -15 8 -15 5 0 6 -7 3 -15 -4 -8 -1 -15 6 -15 6 0 8 -5 5 -10 -4 -6 10 1
31 15 20 14 43 25 50 25 21 0 17 18 -5 25 -12 4 -18 12 -14 20 3 8 9 12 14 9
5 -3 9 -1 9 5 0 6 6 8 14 5 8 -3 12 -12 9 -20 -3 -7 2 -21 11 -29 19 -19 22
-5 4 14 -11 11 -10 12 0 6 9 -4 15 0 19 15 4 14 11 19 22 15 13 -5 14 -4 3 7
-11 11 -16 10 -28 -6 -13 -18 -19 -15 -15 7 1 5 -3 6 -9 2 -9 -6 -14 8 -11 28
1 5 -4 5 -10 1 -8 -5 -10 -2 -6 9 6 16 -19 45 -30 34 -3 -4 2 -10 11 -13 14
-5 15 -9 4 -16 -10 -7 -9 -10 5 -19 17 -10 15 -29 -4 -29 -6 0 -8 3 -5 8 2 4
-2 15 -9 25 -9 12 -15 15 -20 7 -4 -6 1 -20 10 -30 11 -12 13 -20 6 -25 -11
-6 -12 -5 -15 15 0 5 -6 14 -13 21 -9 9 -11 7 -7 -8 6 -22 -11 -40 -21 -23 -3
5 -1 10 5 10 6 0 8 5 4 11 -4 8 -9 7 -15 -2 -4 -7 -5 -17 -3 -21 3 -4 1 -8 -4
-8 -11 0 -26 30 -23 43 1 5 -3 6 -9 2 -6 -3 -8 -10 -5 -15 3 -5 0 -12 -6 -16
-8 -5 -10 1 -7 19 4 23 3 25 -13 17 -24 -13 -29 -13 -29 5 0 9 6 12 18 8 11
-4 8 1 -8 15 l-25 22 24 -4 c14 -1 27 -8 29 -14 2 -7 11 -12 20 -12 14 1 14 3
-3 16 -11 8 -19 23 -17 33 1 10 -3 23 -11 29 -11 9 -17 7 -27 -13z m17 -27
c-3 -7 -5 -2 -5 12 0 14 2 19 5 13 2 -7 2 -19 0 -25z"/>
<path d="M1215 1253 c-3 -8 -5 -18 -5 -22 0 -11 39 -11 46 1 5 7 2 9 -8 5 -23
-8 -31 4 -12 18 15 11 15 12 1 12 -9 0 -19 -7 -22 -14z"/>
<path d="M1056 1214 c5 -21 4 -25 -6 -19 -9 5 -11 4 -6 -4 4 -6 12 -9 17 -6 5
4 9 1 9 -4 0 -6 5 -11 12 -11 9 0 9 3 0 12 -7 7 -12 20 -12 29 0 10 -5 21 -10
24 -7 4 -8 -3 -4 -21z"/>
<path d="M1276 1228 c3 -5 10 -6 15 -3 13 9 11 12 -6 12 -8 0 -12 -4 -9 -9z"/>
<path d="M1182 1221 c-10 -6 -10 -10 2 -20 10 -9 16 -9 21 -1 10 16 -7 31 -23
21z"/>
<path d="M1245 1210 c-4 -6 -11 -8 -16 -5 -5 3 -6 -1 -3 -10 4 -9 13 -14 21
-11 8 3 17 6 19 6 2 0 4 7 4 15 0 17 -16 20 -25 5z"/>
<path d="M1695 1211 c-3 -5 -2 -12 3 -15 5 -3 9 1 9 9 0 17 -3 19 -12 6z"/>
<path d="M1205 1180 c-8 -13 -1 -24 14 -19 6 3 7 10 2 18 -6 10 -10 10 -16 1z"/>
<path d="M1610 1180 c-9 -6 -10 -10 -3 -10 6 0 15 5 18 10 8 12 4 12 -15 0z"/>
<path d="M1565 1160 c-3 -5 -3 -10 1 -10 4 0 0 -6 -9 -12 -9 -7 -21 -25 -26
-40 -10 -26 -9 -27 15 -18 31 12 44 13 26 1 -11 -7 -10 -9 3 -15 12 -4 16 -1
13 12 -2 9 -10 17 -18 17 -15 0 -20 7 -20 26 0 5 5 7 10 4 6 -3 10 -2 10 3 0
12 33 10 42 -3 12 -16 -3 -26 -20 -13 -12 9 -11 6 2 -10 11 -12 25 -22 33 -22
17 0 16 4 -2 40 -14 27 -5 44 10 20 3 -5 11 -10 18 -10 6 0 2 7 -9 15 -12 8
-33 12 -48 9 -18 -3 -25 -1 -21 6 3 5 4 10 1 10 -3 0 -8 -4 -11 -10z"/>
<path d="M1055 1150 c-8 -13 8 -18 30 -9 11 4 18 8 15 9 -23 7 -41 7 -45 0z"/>
<path d="M1490 1131 c0 -6 5 -11 11 -11 6 0 9 -6 7 -12 -3 -7 -11 -13 -19 -13
-8 0 -15 -3 -16 -7 -7 -19 -2 -28 16 -28 13 0 20 9 25 30 8 44 8 45 -8 48 -9
2 -16 -1 -16 -7z"/>
<path d="M1043 1116 c-7 -10 -11 -76 -5 -76 2 0 10 7 18 15 14 13 13 15 -3 15
-15 0 -16 2 -3 10 9 6 11 10 3 10 -7 0 -10 7 -6 16 5 15 7 15 15 0 8 -14 13
-15 24 -5 8 6 14 14 14 18 0 11 -51 8 -57 -3z"/>
<path d="M1430 1118 c0 -6 -3 -8 -6 -5 -11 11 -48 -22 -50 -45 -2 -13 0 -18 2
-11 3 7 12 9 20 6 8 -3 14 0 14 7 0 9 4 9 17 -1 9 -8 14 -9 10 -3 -4 7 0 17 8
24 19 16 19 26 0 34 -8 3 -15 0 -15 -6z m10 -23 c-7 -9 -15 -13 -18 -10 -3 3
-11 0 -19 -6 -9 -9 -13 -8 -13 0 0 6 5 12 10 12 6 1 14 2 19 3 5 0 13 4 17 9
14 13 17 7 4 -8z"/>
<path d="M1750 1123 c0 -6 8 -17 18 -24 16 -13 16 -13 2 6 -8 11 -16 22 -17
24 -2 2 -3 0 -3 -6z"/>
<path d="M1073 1055 c-18 -19 -28 -35 -23 -35 5 0 6 -8 3 -17 -6 -16 -5 -16
10 -4 9 7 17 10 17 5 0 -4 7 1 15 12 8 10 15 17 15 14 1 -3 3 -18 5 -33 3 -24
1 -26 -11 -16 -11 9 -14 9 -14 0 0 -7 -4 -9 -10 -6 -5 3 -10 2 -10 -3 0 -20
40 -20 53 -1 8 10 17 16 21 11 4 -4 6 -1 4 7 -1 7 3 16 10 18 7 3 11 -1 10 -7
-2 -7 3 -15 10 -17 17 -6 15 12 -2 26 -10 9 -20 9 -34 2 -14 -8 -19 -7 -19 5
0 7 2 12 5 9 9 -9 42 16 42 33 0 13 2 14 9 4 7 -11 9 -11 14 2 9 23 -19 20
-43 -4 -11 -11 -20 -17 -20 -12 0 4 -4 2 -8 -5 -6 -9 -11 -7 -19 6 -9 14 -8
18 3 18 7 0 10 -5 7 -10 -3 -6 -1 -7 6 -3 9 6 9 11 0 22 -6 8 -12 14 -13 14
-1 0 -16 -16 -33 -35z m21 -18 c-3 -8 -11 -14 -19 -14 -11 0 -12 4 -4 14 6 7
15 13 20 13 5 0 6 -6 3 -13z"/>
<path d="M1526 1057 c-9 -7 -17 -17 -16 -22 5 -21 0 -48 -7 -41 -12 11 -12 37
-1 30 7 -4 8 -2 4 4 -11 18 -27 14 -24 -5 2 -11 -2 -17 -10 -15 -14 2 -6 -16
21 -50 16 -20 37 -24 37 -7 0 8 6 7 17 -2 12 -10 15 -10 9 -1 -7 12 17 45 27
36 3 -3 3 4 0 15 -5 20 -18 20 -18 0 0 -22 -20 -11 -31 18 -11 27 -11 32 2 37
8 3 12 2 9 -3 -3 -5 -1 -12 4 -15 10 -7 23 19 14 28 -9 9 -17 7 -37 -7z m20
-85 c-12 -11 -47 -8 -58 6 -12 15 -11 16 5 3 16 -13 19 -12 24 8 5 20 6 20 18
4 8 -10 12 -19 11 -21z"/>
<path d="M1192 1018 c7 -13 11 -29 10 -35 -2 -7 5 -13 15 -13 14 0 15 2 5 9
-8 4 -13 12 -13 17 1 18 -11 44 -20 44 -5 0 -4 -10 3 -22z"/>
<path d="M1236 1001 c-4 -5 -2 -12 3 -15 5 -4 12 -2 15 3 4 5 2 12 -3 15 -5 4
-12 2 -15 -3z"/>
<path d="M1136 961 c-3 -4 6 -6 19 -3 20 3 25 0 24 -14 0 -11 -3 -14 -5 -8 -7
16 -44 5 -44 -12 0 -7 -5 -16 -11 -20 -8 -4 -9 1 -4 16 5 15 4 20 -4 16 -12
-7 -16 -56 -5 -56 4 0 28 15 55 34 35 26 50 32 57 23 13 -15 -7 -35 -31 -31
-9 1 -15 -2 -11 -7 3 -5 0 -9 -6 -9 -8 0 -7 -6 1 -21 9 -17 8 -24 -2 -31 -48
-31 -59 -31 -59 5 0 16 2 17 15 7 12 -10 19 -10 27 -2 18 18 -3 32 -29 21 -25
-9 -30 -38 -11 -57 10 -10 10 -15 1 -20 -16 -10 -10 -42 10 -54 21 -11 22 -28
2 -28 -8 0 -19 -9 -25 -21 -11 -19 -9 -20 25 -13 24 4 40 3 44 -5 5 -8 12 -7
26 3 15 11 17 17 7 28 -6 8 -10 18 -7 21 3 4 2 5 -2 2 -3 -3 -12 0 -20 7 -11
9 -12 7 -6 -8 6 -17 5 -17 -10 -5 -10 8 -15 16 -12 19 2 3 -3 10 -11 17 -25
18 -9 55 24 55 17 0 22 3 15 8 -9 6 -3 14 20 27 17 11 36 18 40 17 5 -1 6 2 2
8 -8 12 -37 9 -47 -5 -4 -6 -8 -2 -8 8 0 11 5 17 13 14 6 -2 20 5 29 15 9 11
19 19 22 19 3 0 13 2 21 5 20 8 19 24 -1 24 -8 0 -13 -4 -9 -9 3 -5 1 -12 -4
-15 -5 -4 -13 3 -16 15 -5 14 -13 19 -26 16 -10 -3 -22 -1 -25 4 -7 11 -41 12
-48 0z m24 -35 c0 -3 -4 -8 -10 -11 -5 -3 -10 -1 -10 4 0 6 5 11 10 11 6 0 10
-2 10 -4z m26 -225 c-4 -5 -3 -11 1 -14 5 -2 2 -2 -5 0 -8 1 -28 4 -45 4 l-32
2 35 7 c51 11 52 11 46 1z"/>
<path d="M1448 946 c-13 -10 -15 -15 -6 -24 7 -7 16 -12 22 -12 5 0 6 3 3 7
-4 3 -2 12 4 19 14 17 -3 25 -23 10z"/>
<path d="M1567 938 c-5 -18 -8 -19 -21 -8 -13 10 -16 10 -16 -4 0 -10 -8 -16
-22 -15 -21 0 -21 1 -4 8 17 7 18 8 3 14 -20 8 -30 -7 -22 -33 8 -25 17 -25
40 0 22 24 33 19 30 -14 -2 -14 4 -31 13 -38 15 -11 15 -11 4 4 -10 13 -10 17
0 21 10 3 10 9 1 25 -15 25 -4 37 13 14 12 -14 12 -12 3 16 -13 38 -15 39 -22
10z"/>
<path d="M1765 910 c-10 -11 -22 -17 -28 -13 -5 3 -7 1 -3 -5 3 -6 2 -13 -3
-17 -16 -9 -1 -35 20 -35 15 0 17 4 10 23 -7 17 -4 27 12 45 11 12 18 22 15
22 -3 0 -13 -9 -23 -20z m-18 -45 c0 -8 -4 -12 -9 -9 -5 3 -6 10 -3 15 9 13
12 11 12 -6z"/>
<path d="M1445 890 c-3 -6 1 -13 10 -16 19 -8 30 0 20 15 -8 14 -22 14 -30 1z"/>
<path d="M1200 840 c-8 -5 -11 -12 -7 -17 5 -4 12 -1 17 7 7 11 11 11 24 1 13
-11 16 -11 16 3 0 18 -26 21 -50 6z"/>
<path d="M1684 829 c0 -13 3 -15 13 -7 7 6 13 12 13 13 0 2 -6 5 -13 8 -7 3
-13 -3 -13 -14z"/>
<path d="M1143 787 c0 -8 6 -14 12 -14 6 0 12 6 12 14 0 7 -6 13 -12 13 -6 0
-12 -6 -12 -13z"/>
<path d="M1310 739 c0 -5 5 -7 10 -4 6 3 10 8 10 11 0 2 -4 4 -10 4 -5 0 -10
-5 -10 -11z"/>
<path d="M1611 683 c-1 -6 4 -15 9 -18 16 -10 -10 -37 -27 -31 -8 3 -12 2 -8
-3 3 -5 0 -11 -7 -13 -7 -3 -5 -7 6 -11 10 -4 15 -3 11 3 -3 6 -3 10 2 11 4 0
18 2 31 5 13 2 21 0 18 -5 -3 -4 6 -18 19 -31 13 -13 22 -26 20 -31 -3 -4 6
-16 20 -27 14 -11 21 -23 15 -25 -6 -3 -5 -4 2 -3 20 4 16 41 -4 41 -10 0 -17
5 -15 10 1 5 7 9 13 7 7 -1 14 5 18 13 4 11 2 14 -7 8 -20 -12 -31 -11 -45 3
-10 11 -10 14 -1 14 7 0 9 3 6 7 -4 3 -2 12 5 20 8 11 7 12 -6 7 -10 -4 -16
-1 -16 7 0 12 -2 12 -9 0 -7 -10 -10 -10 -16 -1 -4 7 -2 16 5 20 9 5 9 9 1 14
-6 4 -15 5 -20 2 -5 -4 -12 0 -14 6 -4 9 -6 10 -6 1z m56 -68 c0 -8 -4 -12 -9
-9 -5 3 -6 10 -3 15 9 13 12 11 12 -6z"/>
<path d="M1113 656 c-29 -14 -29 -26 -1 -26 12 0 18 3 15 7 -4 3 -2 12 4 20
13 15 12 15 -18 -1z"/>
<path d="M1206 662 c-3 -5 -20 -12 -38 -16 -31 -7 -32 -8 -14 -21 10 -8 23
-12 27 -9 5 3 9 0 9 -5 0 -6 5 -11 11 -11 8 0 8 4 0 14 -9 11 -8 18 5 30 9 10
14 19 11 22 -3 3 -8 1 -11 -4z"/>
<path d="M1261 654 c0 -11 3 -14 6 -6 3 7 2 16 -1 19 -3 4 -6 -2 -5 -13z"/>
<path d="M1221 613 c7 -12 15 -20 18 -17 3 2 -3 12 -13 22 -17 16 -18 16 -5
-5z"/>
<path d="M1251 594 c0 -11 3 -14 6 -6 3 7 2 16 -1 19 -3 4 -6 -2 -5 -13z"/>
<path d="M1606 591 c-4 -5 4 -7 16 -4 22 5 22 5 3 -10 -10 -8 -24 -14 -30 -13
-5 2 -7 1 -2 -1 4 -3 4 -10 0 -16 -3 -7 -3 -9 2 -5 4 4 16 3 27 -3 16 -9 17
-13 6 -27 -11 -15 -11 -15 3 -5 9 7 18 12 20 10 3 -1 -6 8 -19 21 -13 12 -19
23 -15 24 4 0 13 2 18 3 6 2 14 3 19 4 13 2 -15 31 -30 31 -7 0 -15 -4 -18 -9z"/>
<path d="M1240 531 c0 -5 5 -13 10 -16 6 -3 10 -2 10 4 0 5 -4 13 -10 16 -5 3
-10 2 -10 -4z"/>
<path d="M1580 526 c0 -2 8 -10 18 -17 15 -13 16 -12 3 4 -13 16 -21 21 -21
13z"/>
<path d="M1564 480 c0 -13 4 -16 10 -10 7 7 7 13 0 20 -6 6 -10 3 -10 -10z"/>
<path d="M1525 460 c-3 -5 -2 -10 4 -10 5 0 13 5 16 10 3 6 2 10 -4 10 -5 0
-13 -4 -16 -10z"/>
<path d="M1875 900 c2 -27 10 -33 12 -10 1 11 -2 22 -6 24 -4 3 -7 -4 -6 -14z"/>
<path d="M1765 580 c-3 -5 -1 -10 4 -10 6 0 11 5 11 10 0 6 -2 10 -4 10 -3 0
-8 -4 -11 -10z"/>
<path d="M1369 683 c-13 -15 -12 -15 9 -4 23 12 28 21 13 21 -5 0 -15 -7 -22
-17z"/>
<path d="M1407 663 c-11 -17 10 -26 30 -13 16 10 16 11 1 6 -9 -3 -18 0 -21 7
-2 8 -5 8 -10 0z"/>
<path d="M1354 643 c2 -9 10 -17 19 -19 20 -3 22 7 5 24 -17 17 -27 15 -24 -5z"/>
<path d="M1326 625 c-3 -9 0 -15 9 -15 9 0 12 6 9 15 -4 8 -7 15 -9 15 -2 0
-5 -7 -9 -15z"/>
<path d="M1427 626 c-7 -7 -25 -19 -39 -27 l-27 -14 31 -18 c22 -13 28 -14 19
-3 -10 11 -9 15 1 19 7 2 4 3 -7 1 -19 -3 -19 -2 -2 11 11 7 25 11 33 8 10 -4
12 0 8 11 -3 9 -2 16 4 16 14 0 23 -28 12 -35 -6 -4 -10 -12 -9 -18 0 -9 2 -8
6 1 2 6 9 9 14 6 6 -3 5 -11 -2 -20 -9 -11 -15 -11 -25 -3 -11 9 -14 8 -14 -5
0 -22 23 -20 46 5 12 13 14 23 8 27 -6 4 -10 16 -9 28 2 23 -28 30 -48 10z"/>
<path d="M1328 589 c-10 -5 -15 -16 -11 -25 5 -13 7 -13 14 -2 7 10 12 9 26
-6 17 -18 17 -18 1 -13 -10 4 -18 2 -18 -4 0 -6 -5 -7 -11 -3 -8 5 -8 1 0 -14
6 -12 17 -24 24 -28 8 -5 7 -2 -2 9 -8 10 -11 21 -7 24 4 4 11 1 16 -7 9 -13
10 -13 10 0 0 13 1 13 10 0 6 -9 10 -10 10 -3 0 6 -11 25 -25 41 -13 16 -22
32 -18 36 9 9 1 7 -19 -5z"/>
<path d="M1397 537 c14 -23 11 -37 -8 -37 -12 0 -17 -5 -14 -11 5 -7 15 -5 31
6 14 9 28 14 33 11 4 -3 8 1 8 9 0 8 -4 12 -9 9 -4 -3 -8 -1 -8 4 0 5 -9 12
-20 15 -14 3 -18 1 -13 -6z"/>
<path d="M1460 520 c0 -5 5 -10 10 -10 6 0 10 5 10 10 0 6 -4 10 -10 10 -5 0
-10 -4 -10 -10z"/>
<path d="M1413 483 c-7 -2 -13 -9 -13 -15 0 -6 7 -4 17 3 15 12 16 12 10 -3
-4 -12 -2 -15 9 -11 11 4 12 9 3 19 -6 8 -12 14 -13 13 0 0 -7 -3 -13 -6z"/>
<path d="M1123 2654 c-47 -23 -65 -48 -70 -96 -6 -66 21 -101 114 -146 83 -39
100 -64 68 -96 -22 -21 -63 -20 -124 3 -28 10 -52 16 -55 13 -4 -3 -6 -24 -6
-47 l0 -42 51 -11 c101 -24 171 -10 218 44 25 27 31 44 31 79 0 59 -32 95
-125 139 -57 27 -75 40 -75 56 0 32 41 46 103 33 29 -6 55 -9 60 -6 4 2 7 21
7 42 0 37 -2 39 -37 45 -64 10 -127 6 -160 -10z m150 0 c34 -6 37 -9 37 -40
l0 -32 -37 10 c-30 8 -64 7 -129 -4 -12 -2 -6 -47 8 -65 6 -7 43 -29 84 -48
77 -37 104 -68 104 -120 0 -53 -53 -117 -82 -99 -6 4 -8 3 -5 -3 4 -7 -8 -14
-29 -17 -39 -8 -126 2 -119 14 2 4 -7 5 -20 2 -23 -4 -25 -1 -25 32 0 20 2 36
4 36 2 0 23 -7 46 -15 81 -29 150 -10 150 40 0 31 -21 50 -81 76 -27 12 -46
25 -43 30 3 5 -1 6 -8 4 -8 -3 -25 6 -38 21 -19 19 -25 37 -25 69 0 88 80 130
208 109z"/>
<path d="M1145 2625 c-26 -22 -27 -24 -8 -22 12 0 20 4 17 8 -7 12 25 31 41
25 9 -3 13 -2 10 4 -10 16 -28 11 -60 -15z"/>
<path d="M1235 2630 c-3 -5 -1 -10 4 -10 6 0 11 5 11 10 0 6 -2 10 -4 10 -3 0
-8 -4 -11 -10z"/>
<path d="M1075 2561 c-3 -5 -2 -12 3 -15 5 -3 9 1 9 9 0 17 -3 19 -12 6z"/>
<path d="M1117 2545 c-4 -8 -3 -16 1 -19 4 -3 9 4 9 15 2 23 -3 25 -10 4z"/>
<path d="M1164 2453 c4 -7 16 -18 26 -23 16 -9 18 -8 14 5 -4 9 -9 13 -12 11
-3 -3 -12 0 -20 7 -13 9 -14 9 -8 0z"/>
<path d="M1227 2453 c-11 -11 -8 -21 9 -27 13 -5 14 -4 6 7 -7 8 -9 17 -5 20
3 4 4 7 1 7 -2 0 -8 -3 -11 -7z"/>
<path d="M1280 2428 c-2 -5 -3 -11 -4 -15 -1 -5 -5 -15 -11 -23 -7 -12 -6 -13
7 -3 8 7 17 10 20 7 3 -2 8 2 12 11 3 9 2 14 -3 10 -5 -3 -12 1 -14 7 -3 7 -6
10 -7 6z"/>
<path d="M1285 2369 c-3 -3 2 -12 10 -19 8 -7 15 -11 16 -9 6 30 5 36 -8 36
-7 0 -16 -4 -18 -8z"/>
<path d="M1276 2340 c5 -8 9 -21 10 -28 2 -8 5 -17 9 -20 7 -7 25 18 24 33 0
6 -3 4 -6 -3 -3 -8 -11 -5 -25 10 -11 13 -16 16 -12 8z"/>
<path d="M1100 2284 c0 -5 8 -14 18 -21 15 -9 19 -8 19 3 0 8 -3 12 -5 9 -3
-3 -11 0 -19 6 -7 6 -13 7 -13 3z"/>
<path d="M1235 2280 c-3 -5 -1 -10 4 -10 6 0 11 5 11 10 0 6 -2 10 -4 10 -3 0
-8 -4 -11 -10z"/>
<path d="M1156 2259 c2 -4 13 -9 24 -12 11 -3 18 -1 15 3 -3 5 1 11 7 13 7 3
-1 4 -19 4 -17 -1 -29 -5 -27 -8z"/>
<path d="M1060 261 c0 -82 3 -111 13 -111 16 0 14 213 -2 218 -7 2 -11 -33
-11 -107z"/>
<path d="M236 337 c-34 -34 -25 -61 31 -94 33 -19 43 -31 41 -47 -3 -18 -9
-21 -51 -20 -52 0 -60 -17 -11 -27 42 -8 83 9 90 37 9 34 1 48 -47 80 -23 16
-44 34 -46 41 -7 20 32 34 63 23 30 -12 36 -10 25 8 -4 6 -21 15 -38 18 -25 5
-37 1 -57 -19z"/>
<path d="M2289 339 c-11 -11 -18 -27 -15 -36 3 -8 6 -19 6 -23 0 -5 20 -21 46
-36 34 -20 44 -32 42 -48 -3 -18 -9 -21 -50 -20 -33 0 -48 -4 -48 -13 0 -8 13
-13 33 -14 49 -2 60 1 81 21 29 28 14 64 -39 96 -47 27 -55 43 -30 64 11 9 22
9 45 2 24 -9 30 -8 30 2 0 14 -29 26 -62 26 -10 0 -27 -9 -39 -21z"/>
<path d="M2463 336 c-70 -59 -40 -189 45 -188 15 0 44 -9 65 -20 36 -18 57
-17 57 3 0 5 -9 9 -19 9 -44 0 -51 11 -24 35 23 19 27 30 27 74 0 42 -5 56
-25 77 -38 38 -88 42 -126 10z m82 -2 c19 -8 45 -55 45 -83 0 -85 -104 -114
-130 -36 -24 71 26 141 85 119z"/>
<path d="M820 334 c0 -17 22 -14 28 4 2 7 -3 12 -12 12 -9 0 -16 -7 -16 -16z"/>
<path d="M1234 250 c0 -87 2 -100 16 -100 14 0 17 7 13 40 -4 36 -3 40 17 40
24 0 61 17 72 34 12 17 9 61 -4 74 -7 7 -35 12 -62 12 l-51 0 -1 -100z m94 51
c4 -27 -20 -51 -50 -51 -14 0 -18 8 -18 41 0 39 1 40 33 37 25 -2 33 -8 35
-27z"/>
<path d="M2665 250 l-1 -100 63 0 c35 0 63 4 63 10 0 6 -22 10 -49 10 l-49 0
1 90 c2 74 -1 90 -13 90 -12 0 -15 -18 -15 -100z"/>
<path d="M710 316 c0 -8 -6 -17 -12 -20 -10 -5 -10 -7 0 -12 7 -4 12 -27 12
-65 0 -53 3 -61 23 -68 24 -9 47 -4 47 10 0 5 -9 9 -20 9 -11 0 -21 3 -21 8
-1 4 -3 28 -5 55 -2 44 -1 47 22 47 13 0 24 5 24 10 0 6 -11 10 -25 10 -18 0
-23 4 -19 15 4 9 0 15 -10 15 -9 0 -16 -6 -16 -14z"/>
<path d="M1720 316 c0 -8 -6 -17 -12 -19 -10 -4 -10 -7 -1 -14 6 -5 13 -35 15
-68 3 -60 3 -60 36 -63 36 -4 45 15 10 20 -20 3 -23 9 -25 56 -1 49 0 52 23
52 13 0 24 5 24 10 0 6 -11 10 -25 10 -18 0 -23 4 -19 15 4 9 0 15 -10 15 -9
0 -16 -6 -16 -14z"/>
<path d="M380 194 c0 -80 3 -105 13 -101 7 2 11 19 10 42 -2 29 0 36 9 27 30
-30 95 -2 99 44 8 80 -43 122 -93 77 -17 -15 -18 -15 -18 0 0 10 -4 17 -10 17
-6 0 -10 -42 -10 -106z m102 55 c13 -38 -6 -79 -36 -79 -29 0 -42 16 -44 56
-2 23 4 34 20 42 33 16 50 10 60 -19z"/>
<path d="M567 293 c-15 -14 -6 -19 28 -15 30 4 35 1 35 -16 0 -13 -9 -21 -27
-25 -16 -4 -34 -10 -41 -15 -17 -12 -22 -44 -9 -59 12 -16 59 -17 75 -1 9 9
12 9 12 0 0 -7 9 -12 20 -12 11 0 20 5 20 10 0 6 -4 10 -10 10 -5 0 -10 24
-10 53 0 29 -5 58 -12 65 -13 13 -70 17 -81 5z m61 -95 c-3 -25 -34 -36 -51
-19 -14 14 9 41 35 41 14 0 19 -6 16 -22z"/>
<path d="M820 225 c0 -53 4 -75 13 -75 8 0 12 22 13 75 0 56 -3 75 -13 75 -10
0 -13 -20 -13 -75z"/>
<path d="M917 293 c-15 -14 -6 -19 28 -15 30 4 35 1 35 -16 0 -13 -9 -21 -27
-25 -16 -4 -34 -10 -41 -15 -17 -12 -22 -44 -9 -59 12 -16 59 -17 75 -1 9 9
12 9 12 0 0 -7 9 -12 20 -12 11 0 20 5 20 10 0 6 -4 10 -10 10 -5 0 -10 24
-10 53 0 29 -5 58 -12 65 -13 13 -70 17 -81 5z m61 -95 c-3 -25 -34 -36 -51
-19 -14 14 9 41 35 41 14 0 19 -6 16 -22z"/>
<path d="M1405 280 c-24 -26 -23 -84 1 -111 25 -28 88 -26 108 3 22 31 20 80
-4 106 -27 29 -80 29 -105 2z m83 -12 c14 -14 16 -67 3 -86 -15 -24 -64 -10
-75 20 -19 55 34 104 72 66z"/>
<path d="M1580 285 c-19 -23 -7 -49 30 -66 47 -23 46 -44 -3 -44 -23 0 -37 -5
-37 -12 0 -17 72 -17 88 -1 22 22 13 48 -23 69 -45 27 -47 53 -5 47 20 -3 30
0 30 9 0 18 -64 17 -80 -2z"/>
<path d="M1837 282 c-31 -34 -26 -96 9 -119 25 -16 28 -16 55 0 34 19 39 5 13
-32 -14 -19 -23 -22 -51 -18 -24 4 -33 2 -30 -6 7 -20 88 -13 104 8 16 22 19
185 3 185 -5 0 -10 -5 -10 -12 0 -9 -3 -9 -12 0 -18 18 -63 15 -81 -6z m81
-14 c7 -7 12 -24 12 -38 0 -31 -17 -50 -45 -50 -40 0 -57 39 -35 81 12 21 50
25 68 7z"/>
<path d="M2004 225 c-1 -64 1 -75 16 -75 14 0 16 8 12 46 -4 48 19 90 45 80 7
-3 13 1 13 9 0 18 -21 19 -39 3 -11 -10 -14 -10 -18 0 -3 6 -10 12 -16 12 -8
0 -12 -25 -13 -75z"/>
<path d="M2135 280 c-23 -25 -22 -86 1 -111 20 -23 104 -27 104 -6 0 9 -11 12
-37 9 -27 -3 -40 0 -50 14 -21 29 -16 34 37 34 41 0 50 3 50 18 0 55 -69 82
-105 42z m73 -22 c3 -15 -4 -18 -33 -18 -33 0 -35 2 -25 21 14 24 53 22 58 -3z"/>
</g>
</svg>
